<svg xmlns="http://www.w3.org/2000/svg" xmlns:xlink="http://www.w3.org/1999/xlink" id="svg" version="1.1" width="400" height="96.66666666666666" viewBox="0, 0, 400,96.66666666666666 undefined"><g id="svgg"><path id="path0" d="M244.250 18.336 C 235.488 19.655,229.646 23.622,225.887 30.807 C 225.280 31.967,224.357 33.629,223.837 34.500 C 222.613 36.549,222.133 37.419,220.662 40.250 C 219.601 42.292,219.113 43.187,217.840 45.417 C 217.164 46.601,216.467 47.897,215.330 50.083 C 214.663 51.367,213.941 52.696,213.725 53.038 C 213.510 53.380,213.333 53.703,213.333 53.755 C 213.333 53.807,213.085 54.239,212.782 54.716 C 212.140 55.726,211.198 57.439,208.413 62.667 C 207.607 64.179,206.799 65.679,206.617 66.000 C 205.663 67.683,203.965 70.743,203.334 71.917 C 201.232 75.830,200.589 76.863,199.234 78.505 C 198.107 79.872,196.141 81.800,195.083 82.575 C 193.453 83.772,192.994 84.438,194.292 83.726 C 195.979 82.800,199.878 79.113,200.667 77.699 C 200.804 77.452,201.173 76.837,201.485 76.333 C 201.798 75.829,202.306 74.943,202.615 74.364 C 202.923 73.785,203.542 72.660,203.989 71.864 C 204.437 71.068,205.013 69.967,205.270 69.417 C 205.526 68.867,205.796 68.392,205.868 68.361 C 205.941 68.331,206.000 68.232,206.000 68.142 C 206.000 68.052,206.177 67.739,206.393 67.447 C 206.609 67.155,206.965 66.579,207.184 66.167 C 207.404 65.754,207.621 65.379,207.667 65.333 C 207.849 65.151,209.004 62.737,209.002 62.542 C 209.001 62.427,209.075 62.333,209.167 62.333 C 209.258 62.333,209.333 62.219,209.333 62.080 C 209.333 61.941,209.508 61.547,209.722 61.205 C 209.936 60.863,210.337 60.171,210.614 59.667 C 210.891 59.163,211.305 58.413,211.534 58.000 C 211.763 57.587,212.234 56.725,212.582 56.083 C 212.929 55.442,213.445 54.579,213.727 54.167 C 214.010 53.754,214.867 52.184,215.633 50.677 C 217.173 47.644,217.727 46.621,218.166 46.000 C 218.454 45.592,218.991 44.600,220.904 40.939 C 221.424 39.944,221.954 38.969,222.081 38.773 C 222.481 38.156,223.683 35.930,223.779 35.625 C 223.830 35.465,223.938 35.333,224.019 35.333 C 224.100 35.333,224.167 35.259,224.167 35.168 C 224.167 35.078,224.504 34.477,224.917 33.833 C 225.329 33.190,225.667 32.589,225.667 32.498 C 225.667 32.408,225.742 32.333,225.833 32.333 C 225.925 32.333,226.000 32.183,226.000 32.000 C 226.000 31.817,226.075 31.667,226.167 31.667 C 226.258 31.667,226.333 31.594,226.333 31.506 C 226.333 29.901,230.207 25.078,232.833 23.414 C 233.521 22.978,234.108 22.557,234.139 22.478 C 234.169 22.398,234.268 22.333,234.359 22.333 C 234.449 22.333,234.837 22.119,235.220 21.858 C 235.840 21.435,236.543 21.080,237.583 20.667 C 237.767 20.594,238.298 20.380,238.765 20.191 C 239.232 20.002,239.944 19.766,240.348 19.666 C 240.753 19.566,241.571 19.364,242.167 19.216 C 243.494 18.887,248.404 18.844,249.917 19.148 C 256.876 20.547,262.709 24.756,265.584 30.453 C 265.944 31.166,266.497 32.162,266.813 32.667 C 267.129 33.171,267.638 34.053,267.943 34.627 C 268.249 35.200,268.570 35.800,268.656 35.960 C 268.743 36.119,269.033 36.700,269.301 37.250 C 269.877 38.431,271.639 41.815,272.145 42.713 C 272.340 43.060,272.500 43.454,272.500 43.588 C 272.500 43.723,272.575 43.833,272.667 43.833 C 272.758 43.833,272.833 43.944,272.833 44.078 C 272.833 44.213,272.994 44.607,273.190 44.953 C 273.387 45.300,273.860 46.183,274.242 46.917 C 274.919 48.215,275.480 49.164,275.669 49.333 C 275.720 49.379,276.266 50.403,276.881 51.609 C 277.496 52.814,278.273 54.277,278.608 54.859 C 279.224 55.931,279.849 57.168,280.615 58.833 C 281.253 60.220,281.851 61.367,282.193 61.859 C 282.362 62.102,282.500 62.377,282.500 62.470 C 282.500 62.563,282.556 62.664,282.625 62.694 C 282.694 62.725,283.185 63.605,283.717 64.649 C 285.862 68.860,288.311 71.208,291.542 72.151 C 291.885 72.251,292.416 72.408,292.720 72.500 C 293.599 72.765,341.870 72.711,342.833 72.444 C 349.376 70.633,350.108 61.759,343.953 58.868 C 342.105 58.000,342.115 58.000,323.831 58.000 C 305.782 58.000,306.219 58.018,303.615 57.149 C 299.638 55.820,295.672 52.750,294.067 49.757 C 293.967 49.570,293.674 49.042,293.416 48.583 C 290.252 42.964,289.970 37.758,292.494 31.583 C 293.829 28.315,296.226 25.316,298.833 23.651 C 300.765 22.417,303.371 21.167,304.011 21.167 C 304.177 21.167,304.355 21.100,304.405 21.018 C 304.456 20.937,304.779 20.822,305.123 20.764 C 305.468 20.706,306.162 20.573,306.667 20.470 C 307.315 20.338,315.297 20.265,333.958 20.222 L 360.333 20.162 360.333 25.956 L 360.333 31.750 334.792 31.750 C 308.812 31.750,308.149 31.764,307.010 32.333 C 306.867 32.405,306.378 32.640,305.923 32.857 C 304.217 33.667,302.774 35.604,302.401 37.583 C 302.169 38.813,302.351 41.388,302.684 41.594 C 302.766 41.645,302.833 41.801,302.833 41.941 C 302.833 42.743,305.151 45.109,306.547 45.730 C 306.933 45.902,307.400 46.125,307.583 46.224 C 307.817 46.352,313.083 46.413,325.167 46.429 C 340.166 46.448,342.602 46.486,343.833 46.716 C 345.848 47.093,346.208 47.174,346.583 47.332 C 346.767 47.409,347.329 47.646,347.833 47.859 C 350.474 48.972,352.779 50.533,354.101 52.102 C 354.550 52.634,355.136 53.297,355.405 53.576 C 355.978 54.172,357.106 55.878,357.267 56.392 C 357.328 56.589,357.424 56.788,357.481 56.833 C 357.575 56.910,357.763 57.378,358.454 59.250 C 359.567 62.266,359.806 66.433,359.032 69.333 C 358.343 71.914,357.212 74.784,356.723 75.189 C 356.600 75.291,356.500 75.477,356.500 75.604 C 356.500 75.730,356.443 75.833,356.374 75.833 C 356.305 75.833,356.154 76.045,356.040 76.303 C 355.134 78.350,351.286 81.564,348.417 82.671 C 348.233 82.741,347.821 82.909,347.500 83.042 C 346.944 83.273,345.606 83.738,344.322 84.145 C 343.887 84.282,335.239 84.333,312.321 84.333 L 280.915 84.333 280.681 83.792 C 280.553 83.494,280.309 83.051,280.140 82.808 C 279.902 82.464,277.277 77.417,276.102 75.043 C 276.000 74.837,275.860 74.669,275.792 74.668 C 275.723 74.667,275.664 74.573,275.662 74.458 C 275.659 74.344,275.262 73.462,274.780 72.500 L 273.902 70.750 254.667 70.708 C 239.244 70.674,235.473 70.707,235.641 70.874 C 235.805 71.038,239.884 71.101,254.627 71.167 L 273.404 71.250 273.852 71.917 C 274.098 72.283,275.142 74.271,276.172 76.333 C 278.544 81.082,280.222 84.055,280.778 84.492 C 281.211 84.833,281.221 84.833,312.255 84.833 L 343.298 84.833 345.191 84.351 C 360.059 80.566,365.024 62.403,354.176 51.479 C 352.469 49.760,350.642 48.459,349.064 47.837 C 348.524 47.625,347.858 47.358,347.583 47.245 C 344.268 45.879,343.720 45.846,324.583 45.863 C 306.597 45.880,307.965 45.959,305.950 44.778 C 301.606 42.232,301.867 35.371,306.390 33.188 C 308.218 32.306,307.328 32.333,334.162 32.333 C 361.218 32.333,360.310 32.362,360.580 31.511 C 360.805 30.803,360.809 21.118,360.584 20.570 C 360.193 19.614,361.543 19.657,333.083 19.707 L 306.750 19.753 305.083 20.277 C 296.743 22.899,292.378 27.528,290.738 35.491 C 288.725 45.261,295.429 56.092,304.667 57.995 C 305.171 58.099,305.883 58.252,306.250 58.337 C 306.620 58.421,314.652 58.524,324.270 58.567 C 343.590 58.653,342.469 58.584,344.521 59.816 C 348.471 62.187,348.621 68.340,344.792 70.881 C 342.681 72.283,344.987 72.178,317.372 72.128 L 292.917 72.083 291.750 71.649 C 287.376 70.020,286.368 68.853,282.117 60.500 C 281.114 58.529,280.161 56.692,280.000 56.417 C 279.838 56.142,279.093 54.731,278.343 53.281 C 277.593 51.832,276.751 50.260,276.473 49.788 C 275.564 48.246,274.080 45.444,271.247 39.917 C 270.495 38.450,269.597 36.725,269.251 36.083 C 268.905 35.442,268.468 34.617,268.280 34.250 C 263.704 25.328,260.148 21.875,252.988 19.406 C 250.460 18.534,246.311 18.026,244.250 18.336 M51.500 19.833 C 48.557 20.333,44.397 22.139,42.054 23.933 C 35.700 28.801,32.890 39.780,36.275 46.519 C 36.490 46.948,36.667 47.345,36.667 47.402 C 36.667 47.459,37.043 48.174,37.504 48.991 C 40.163 53.708,44.124 56.687,49.644 58.123 L 51.250 58.540 69.417 58.577 C 89.695 58.618,88.493 58.548,90.424 59.799 C 94.930 62.716,94.241 69.600,89.235 71.675 L 88.250 72.083 61.879 72.167 L 35.508 72.250 35.095 72.667 L 34.682 73.083 34.647 78.544 L 34.612 84.004 35.002 84.419 L 35.391 84.833 62.098 84.833 L 88.804 84.833 90.610 84.410 C 108.471 80.230,111.589 56.208,95.333 48.026 C 91.030 45.859,90.778 45.838,69.833 45.831 C 59.504 45.827,52.980 45.763,52.535 45.660 C 46.512 44.271,45.497 35.970,51.001 33.115 C 52.499 32.337,52.576 32.335,79.583 32.291 C 106.689 32.248,105.838 32.273,106.082 31.505 C 106.139 31.324,106.200 28.768,106.218 25.824 L 106.250 20.472 105.782 20.069 L 105.315 19.667 78.782 19.686 C 64.190 19.697,51.913 19.763,51.500 19.833 M116.844 19.958 C 116.407 20.312,116.431 20.765,117.031 23.417 C 117.165 24.011,117.248 32.860,117.318 54.223 L 117.417 84.196 117.810 84.515 C 118.179 84.814,118.535 84.833,123.615 84.833 L 129.026 84.833 129.513 84.346 L 130.000 83.859 130.031 61.888 C 130.078 28.441,130.200 30.113,127.396 25.821 C 124.940 22.063,118.596 18.537,116.844 19.958 M141.063 19.827 C 140.329 20.131,140.333 19.990,140.338 43.150 L 140.342 65.250 140.816 67.333 C 142.081 72.889,144.724 77.078,149.000 80.305 C 149.688 80.824,150.287 81.289,150.333 81.338 C 151.237 82.311,154.972 83.805,158.035 84.419 L 160.083 84.829 172.583 84.831 C 188.511 84.832,189.948 84.585,194.917 80.997 C 197.263 79.303,200.833 74.619,200.833 73.236 C 200.833 72.570,200.426 73.066,199.384 75.000 C 198.402 76.823,197.924 77.446,196.185 79.169 C 194.422 80.915,193.660 81.428,191.000 82.657 C 190.782 82.758,187.696 83.745,186.238 84.181 C 185.484 84.406,159.919 84.380,158.804 84.152 C 156.284 83.639,154.083 82.896,152.500 82.025 C 152.087 81.798,151.487 81.467,151.167 81.289 C 150.591 80.971,149.586 80.259,149.238 79.923 C 149.140 79.828,148.693 79.450,148.245 79.083 C 145.999 77.244,143.803 74.285,142.861 71.830 C 142.739 71.511,142.570 71.081,142.486 70.875 C 142.402 70.669,142.265 70.331,142.182 70.125 C 141.995 69.665,141.271 66.622,141.015 65.226 C 140.882 64.499,140.830 57.819,140.837 42.184 L 140.846 20.167 146.697 20.167 L 152.548 20.167 152.441 23.792 C 152.266 29.704,152.293 62.800,152.473 63.917 C 153.071 67.617,157.151 72.333,159.753 72.333 C 159.970 72.333,160.193 72.408,160.250 72.500 C 160.318 72.610,167.232 72.665,180.468 72.662 C 196.366 72.658,200.513 72.614,200.250 72.453 C 199.995 72.298,195.288 72.230,180.167 72.167 L 160.417 72.083 159.278 71.621 C 156.160 70.356,154.226 68.180,153.316 64.911 L 152.946 63.583 152.931 42.046 L 152.917 20.510 152.537 20.130 C 152.132 19.724,141.961 19.456,141.063 19.827 M105.570 20.101 C 105.803 20.191,105.833 20.860,105.833 25.918 L 105.833 31.634 102.792 31.709 C 101.119 31.751,89.362 31.790,76.667 31.796 C 54.057 31.807,52.681 31.836,51.583 32.319 C 51.400 32.400,50.957 32.595,50.600 32.753 C 49.439 33.265,47.667 35.175,47.667 35.913 C 47.667 36.053,47.602 36.167,47.522 36.167 C 47.442 36.167,47.255 36.603,47.105 37.136 C 46.156 40.519,47.788 44.162,50.933 45.684 L 52.332 46.361 70.291 46.401 C 89.992 46.445,89.457 46.421,93.000 47.429 C 93.229 47.495,93.495 47.609,93.591 47.683 C 93.687 47.757,94.306 48.085,94.968 48.412 C 97.700 49.762,99.001 50.763,100.599 52.741 C 101.269 53.571,101.971 54.421,102.159 54.631 C 102.346 54.840,102.500 55.084,102.500 55.173 C 102.500 55.261,102.575 55.333,102.667 55.333 C 102.758 55.333,102.833 55.427,102.833 55.542 C 102.832 55.656,103.105 56.313,103.438 57.000 C 105.740 61.748,106.071 68.511,104.164 71.873 C 104.074 72.032,104.000 72.267,104.000 72.395 C 104.000 72.615,102.523 75.658,102.330 75.833 C 102.280 75.879,101.947 76.329,101.590 76.833 C 100.613 78.215,98.260 80.505,97.154 81.153 C 95.004 82.413,92.915 83.267,89.738 84.185 C 89.450 84.269,77.390 84.333,62.091 84.333 L 34.956 84.333 35.060 83.708 C 35.117 83.365,35.164 80.736,35.165 77.868 L 35.167 72.652 61.567 72.676 C 89.198 72.701,88.276 72.723,89.940 71.992 C 92.182 71.007,94.360 67.398,94.117 65.068 C 93.753 61.567,91.586 59.157,88.000 58.264 C 87.031 58.022,85.057 57.998,69.250 58.034 C 55.226 58.065,51.394 58.029,50.667 57.857 C 47.704 57.157,45.254 56.162,43.558 54.970 C 42.325 54.104,40.427 52.335,39.745 51.417 C 39.473 51.050,39.194 50.725,39.125 50.694 C 39.056 50.664,39.000 50.572,39.000 50.489 C 39.000 50.407,38.723 49.907,38.384 49.378 C 35.194 44.398,34.516 39.182,36.298 33.333 C 36.451 32.829,36.709 32.171,36.872 31.870 C 37.034 31.569,37.167 31.243,37.167 31.146 C 37.167 31.048,37.308 30.769,37.481 30.526 C 37.654 30.282,38.002 29.708,38.255 29.250 C 39.510 26.976,41.251 25.052,43.250 23.732 C 44.542 22.880,48.027 21.167,48.471 21.167 C 48.659 21.167,48.855 21.100,48.905 21.018 C 48.956 20.937,49.241 20.829,49.540 20.778 C 49.839 20.727,50.458 20.593,50.917 20.481 C 51.548 20.326,58.229 20.253,78.500 20.178 C 93.212 20.123,105.263 20.061,105.278 20.039 C 105.293 20.018,105.425 20.046,105.570 20.101 M119.250 20.500 C 119.708 20.600,120.290 20.724,120.542 20.776 C 120.794 20.829,121.000 20.938,121.000 21.019 C 121.000 21.100,121.118 21.167,121.262 21.167 C 123.120 21.167,127.665 26.229,128.669 29.417 C 128.785 29.783,128.940 30.233,129.014 30.417 C 129.345 31.241,129.383 33.722,129.442 58.292 L 129.504 84.333 123.668 84.333 L 117.832 84.333 117.839 55.042 C 117.844 35.258,117.790 25.561,117.673 25.168 C 117.578 24.848,117.500 24.121,117.500 23.553 C 117.500 22.984,117.425 22.473,117.333 22.417 C 117.242 22.360,117.167 22.023,117.167 21.667 C 117.167 21.311,117.092 20.973,117.000 20.917 C 116.908 20.860,116.833 20.644,116.833 20.437 C 116.833 20.026,117.109 20.033,119.250 20.500 M244.750 30.337 C 242.701 30.672,241.585 31.149,240.000 32.368 C 238.400 33.599,235.833 36.801,235.833 37.567 C 235.833 37.598,235.340 38.473,234.737 39.510 C 233.785 41.148,232.325 43.877,230.864 46.750 C 230.631 47.208,230.315 47.771,230.162 48.000 C 230.008 48.229,229.471 49.204,228.968 50.167 C 227.949 52.115,227.644 52.666,225.916 55.667 C 225.256 56.813,224.612 57.994,224.484 58.292 C 224.356 58.590,224.195 58.833,224.126 58.833 C 224.057 58.833,224.000 58.921,224.000 59.029 C 224.000 59.136,223.890 59.345,223.756 59.494 C 223.622 59.642,222.807 61.148,221.947 62.840 C 221.086 64.532,219.931 66.667,219.381 67.583 C 218.830 68.500,218.023 69.925,217.587 70.750 C 217.150 71.575,216.652 72.449,216.480 72.692 C 216.308 72.936,216.167 73.203,216.167 73.286 C 216.167 73.369,216.030 73.584,215.863 73.764 C 215.695 73.943,215.267 74.651,214.910 75.337 C 214.554 76.022,214.222 76.621,214.172 76.667 C 214.123 76.712,213.983 76.945,213.861 77.182 C 213.498 77.888,209.978 81.223,209.167 81.630 C 208.754 81.837,208.102 82.189,207.718 82.412 C 207.007 82.825,204.226 83.802,202.789 84.144 C 202.306 84.259,200.286 84.335,197.623 84.339 C 193.741 84.343,193.286 84.371,193.574 84.589 C 193.975 84.892,200.946 84.942,202.362 84.651 C 205.809 83.945,207.124 83.473,209.162 82.212 C 212.118 80.383,214.077 78.162,216.334 74.083 C 216.537 73.717,217.322 72.329,218.079 71.000 C 218.835 69.671,219.772 67.983,220.161 67.250 C 220.549 66.517,220.927 65.842,221.001 65.750 C 221.075 65.658,221.581 64.721,222.127 63.667 C 223.638 60.747,224.377 59.385,225.291 57.833 C 226.351 56.034,229.994 49.462,231.203 47.167 C 232.096 45.472,233.849 42.212,234.877 40.333 C 238.202 34.261,240.034 32.267,243.167 31.307 C 247.587 29.953,252.757 32.050,254.931 36.081 C 255.983 38.031,256.653 39.259,257.158 40.167 C 257.490 40.762,258.163 42.075,258.652 43.083 C 259.142 44.092,260.347 46.379,261.331 48.167 C 266.484 57.530,266.750 58.073,266.320 58.345 C 266.186 58.430,260.898 58.496,254.117 58.497 C 240.609 58.500,241.573 58.402,240.683 59.865 C 238.711 63.106,237.793 64.750,236.562 67.242 C 235.078 70.247,235.028 70.376,235.417 70.227 C 235.554 70.174,235.667 70.033,235.667 69.913 C 235.667 69.793,235.723 69.669,235.792 69.639 C 235.944 69.571,236.667 68.555,236.667 68.409 C 236.667 68.128,239.508 62.652,239.905 62.167 C 240.102 61.927,240.769 60.810,241.348 59.750 L 241.622 59.250 244.519 59.142 C 246.113 59.083,251.864 59.038,257.300 59.042 C 264.417 59.048,267.236 58.998,267.371 58.862 C 267.560 58.674,267.321 58.147,265.585 54.917 C 265.240 54.275,264.432 52.737,263.789 51.500 C 263.145 50.262,262.489 49.063,262.329 48.833 C 261.836 48.126,261.345 47.207,259.540 43.625 C 258.581 41.723,257.730 40.167,257.649 40.167 C 257.567 40.167,257.500 40.017,257.500 39.833 C 257.500 39.650,257.425 39.500,257.333 39.500 C 257.242 39.500,257.167 39.365,257.167 39.200 C 257.167 39.035,257.101 38.829,257.020 38.742 C 256.940 38.655,256.531 37.927,256.112 37.125 C 253.581 32.279,249.132 29.621,244.750 30.337 " stroke="none" fill="#ce5e0a" fill-rule="evenodd"/><path id="path1" d="M0.000 48.333 L 0.000 96.667 200.000 96.667 L 400.000 96.667 400.000 48.333 L 400.000 0.000 200.000 0.000 L 0.000 0.000 0.000 48.333 M250.667 17.081 C 251.262 17.227,252.050 17.424,252.417 17.518 C 257.723 18.882,261.495 21.303,265.109 25.667 C 266.345 27.159,266.960 28.153,268.662 31.417 C 269.236 32.517,269.763 33.492,269.832 33.583 C 269.902 33.675,270.509 34.837,271.181 36.167 C 271.853 37.496,272.711 39.108,273.088 39.750 C 273.464 40.392,274.507 42.339,275.405 44.077 C 276.304 45.816,277.134 47.391,277.250 47.577 C 277.366 47.764,278.061 49.079,278.794 50.500 C 279.527 51.921,280.442 53.646,280.826 54.333 C 281.210 55.021,281.902 56.333,282.364 57.250 C 282.825 58.167,283.354 59.179,283.539 59.500 C 283.724 59.821,284.553 61.396,285.382 63.000 C 287.862 67.802,288.881 68.912,291.755 69.941 L 293.083 70.417 317.750 70.417 L 342.417 70.417 343.309 69.922 C 347.155 67.792,346.551 61.780,342.373 60.608 C 341.494 60.361,339.673 60.333,324.361 60.333 C 304.903 60.333,306.083 60.411,301.917 58.852 C 297.441 57.176,292.187 52.345,290.841 48.667 C 290.724 48.346,290.530 47.858,290.410 47.583 C 287.601 41.137,288.342 33.044,292.285 27.114 C 293.709 24.972,298.068 21.000,298.995 21.000 C 299.089 21.000,299.167 20.937,299.167 20.860 C 299.167 20.694,301.356 19.655,302.667 19.197 C 303.561 18.886,304.045 18.747,305.750 18.315 C 306.908 18.021,362.086 17.893,362.436 18.183 C 362.759 18.451,362.781 33.533,362.458 33.795 C 362.320 33.907,353.169 33.989,335.250 34.037 C 308.566 34.108,308.241 34.113,307.492 34.447 C 304.234 35.899,303.452 40.200,305.994 42.682 C 307.752 44.399,307.252 44.360,327.166 44.318 C 346.241 44.277,345.493 44.215,349.583 46.178 C 355.645 49.087,358.976 53.141,361.008 60.083 C 363.997 70.296,357.442 82.409,347.167 85.659 C 344.113 86.624,346.453 86.561,311.722 86.620 L 279.861 86.674 279.514 86.186 C 279.323 85.918,279.167 85.652,279.167 85.596 C 279.167 85.540,278.990 85.214,278.775 84.872 C 278.559 84.530,277.949 83.425,277.419 82.417 C 276.399 80.474,275.545 78.878,274.431 76.833 C 274.056 76.145,273.529 75.095,273.258 74.499 C 272.988 73.904,272.666 73.304,272.544 73.167 C 272.348 72.947,269.869 72.917,252.137 72.917 C 233.971 72.917,231.937 72.890,231.788 72.655 C 231.607 72.369,231.573 72.438,233.892 68.363 C 234.639 67.050,235.400 65.700,235.582 65.363 C 235.765 65.026,236.508 63.700,237.234 62.417 C 237.960 61.133,238.888 59.446,239.295 58.667 C 239.703 57.887,240.155 57.156,240.300 57.042 C 240.505 56.880,243.124 56.833,252.105 56.833 C 259.589 56.833,263.683 56.775,263.750 56.667 C 263.806 56.576,263.444 55.732,262.946 54.792 C 262.448 53.852,261.611 52.258,261.086 51.250 C 260.562 50.242,260.073 49.342,259.999 49.250 C 259.925 49.158,259.175 47.733,258.331 46.083 C 257.487 44.433,256.737 43.008,256.666 42.917 C 256.594 42.825,255.844 41.402,255.000 39.754 C 252.915 35.685,252.566 35.210,250.777 34.006 C 247.552 31.836,243.426 32.234,240.253 35.020 C 239.453 35.722,238.898 36.549,237.566 39.025 C 236.121 41.711,235.659 42.547,235.508 42.750 C 235.440 42.842,234.931 43.779,234.376 44.833 C 233.821 45.887,232.975 47.425,232.496 48.250 C 232.017 49.075,231.211 50.538,230.705 51.500 C 230.199 52.462,229.507 53.737,229.167 54.333 C 228.826 54.929,228.248 55.979,227.881 56.667 C 226.017 60.164,225.588 60.952,225.126 61.734 C 224.850 62.201,224.323 63.146,223.955 63.833 C 222.569 66.422,222.185 67.121,221.661 68.006 C 221.364 68.507,220.615 69.892,219.995 71.083 C 218.645 73.680,217.287 76.053,216.736 76.781 C 216.514 77.072,216.333 77.362,216.333 77.425 C 216.333 77.959,212.932 81.687,211.389 82.844 C 208.697 84.863,205.770 85.978,202.001 86.422 C 198.875 86.789,161.866 86.783,159.417 86.414 C 157.701 86.155,154.706 85.392,154.425 85.141 C 154.338 85.064,154.171 85.000,154.055 85.000 C 153.552 85.000,150.646 83.558,149.167 82.575 C 144.529 79.492,140.666 74.117,139.473 69.083 C 139.296 68.336,139.135 67.589,138.807 66.000 C 138.587 64.935,138.552 18.486,138.771 18.133 C 138.816 18.060,142.338 18.000,146.597 18.000 L 154.342 18.000 154.493 18.398 C 154.582 18.633,154.613 27.787,154.569 40.722 C 154.481 66.301,154.389 64.823,156.223 67.261 C 157.511 68.973,159.352 70.133,161.250 70.427 C 162.680 70.649,202.053 70.506,202.268 70.279 C 202.370 70.171,202.867 69.296,203.374 68.333 C 204.577 66.047,207.373 60.968,208.832 58.417 C 209.042 58.050,209.493 57.225,209.834 56.583 C 210.884 54.610,212.536 51.592,212.663 51.417 C 212.730 51.325,213.143 50.575,213.583 49.750 C 214.022 48.925,214.925 47.275,215.588 46.083 C 216.252 44.892,217.054 43.429,217.370 42.833 C 218.225 41.222,219.165 39.522,219.721 38.583 C 219.992 38.125,220.663 36.887,221.212 35.833 C 221.762 34.779,222.565 33.279,222.997 32.500 C 223.430 31.721,224.032 30.633,224.336 30.083 C 224.639 29.533,225.022 28.844,225.185 28.553 C 228.130 23.291,233.747 19.133,240.083 17.524 C 240.450 17.431,241.115 17.262,241.561 17.150 C 243.674 16.618,248.621 16.581,250.667 17.081 M117.986 17.914 C 122.301 18.673,125.948 20.866,128.240 24.079 C 128.658 24.664,129.000 25.217,129.000 25.308 C 129.000 25.398,129.066 25.497,129.146 25.528 C 129.950 25.833,131.381 30.316,131.665 33.417 C 131.975 36.798,131.888 86.088,131.571 86.405 C 131.209 86.767,116.157 86.806,115.857 86.445 C 115.725 86.286,115.659 77.472,115.624 55.154 L 115.574 24.083 115.204 22.750 C 114.717 20.994,114.156 19.587,113.631 18.808 C 113.283 18.290,113.249 17.895,113.542 17.777 C 113.987 17.597,116.652 17.679,117.986 17.914 M107.905 18.262 C 108.270 18.627,108.305 33.248,107.941 33.745 C 107.724 34.042,106.747 34.055,80.316 34.115 C 60.654 34.160,52.752 34.230,52.333 34.365 C 48.471 35.605,47.950 41.356,51.500 43.568 C 52.779 44.365,52.679 44.361,71.614 44.323 C 90.848 44.286,90.095 44.256,92.917 45.159 C 94.476 45.658,97.658 47.209,97.806 47.542 C 97.836 47.610,97.935 47.667,98.026 47.667 C 99.391 47.667,104.403 53.377,105.572 56.262 C 105.829 56.897,106.100 57.567,106.174 57.750 C 106.501 58.554,107.069 60.714,107.318 62.093 C 107.553 63.396,107.553 67.271,107.318 68.573 C 107.066 69.974,106.490 72.150,106.170 72.917 C 106.094 73.100,105.905 73.587,105.752 74.000 C 103.465 80.146,96.558 85.343,89.250 86.416 C 86.294 86.850,33.240 86.782,33.006 86.344 C 32.726 85.821,32.772 70.925,33.055 70.690 C 33.213 70.559,41.045 70.494,60.763 70.462 L 88.250 70.417 89.167 69.900 C 92.799 67.854,92.639 62.679,88.887 60.815 L 88.083 60.417 69.417 60.325 C 48.396 60.222,50.230 60.338,46.250 58.852 C 40.419 56.674,35.105 50.557,33.856 44.583 C 33.371 42.261,33.306 41.617,33.318 39.199 C 33.336 35.206,34.321 31.061,35.747 28.967 C 35.978 28.628,36.167 28.309,36.167 28.258 C 36.167 27.937,37.946 25.676,39.230 24.365 C 42.790 20.730,46.920 18.720,52.083 18.109 C 54.069 17.874,107.664 18.021,107.905 18.262 " stroke="none" fill="#fefefe" fill-rule="evenodd"/><path id="path2" d="M243.833 18.939 C 243.220 19.019,241.590 19.359,240.348 19.666 C 239.944 19.765,239.232 20.002,238.765 20.191 C 238.298 20.380,237.767 20.594,237.583 20.667 C 236.543 21.080,235.840 21.435,235.220 21.858 C 234.837 22.119,234.449 22.333,234.359 22.333 C 234.268 22.333,234.169 22.398,234.139 22.478 C 234.108 22.557,233.521 22.978,232.833 23.414 C 230.207 25.078,226.333 29.901,226.333 31.506 C 226.333 31.594,226.258 31.667,226.167 31.667 C 226.075 31.667,226.000 31.817,226.000 32.000 C 226.000 32.183,225.925 32.333,225.833 32.333 C 225.742 32.333,225.667 32.408,225.667 32.498 C 225.667 32.589,225.329 33.190,224.917 33.833 C 224.504 34.477,224.167 35.078,224.167 35.168 C 224.167 35.259,224.100 35.333,224.019 35.333 C 223.938 35.333,223.830 35.465,223.779 35.625 C 223.683 35.930,222.481 38.156,222.081 38.773 C 221.954 38.969,221.424 39.944,220.904 40.939 C 218.991 44.600,218.454 45.592,218.166 46.000 C 217.727 46.621,217.173 47.644,215.633 50.677 C 214.867 52.184,214.010 53.754,213.727 54.167 C 213.445 54.579,212.929 55.442,212.582 56.083 C 212.234 56.725,211.763 57.587,211.534 58.000 C 211.305 58.413,210.891 59.163,210.614 59.667 C 210.337 60.171,209.936 60.863,209.722 61.205 C 209.508 61.547,209.333 61.941,209.333 62.080 C 209.333 62.219,209.258 62.333,209.167 62.333 C 209.075 62.333,209.001 62.427,209.002 62.542 C 209.004 62.737,207.849 65.151,207.667 65.333 C 207.621 65.379,207.404 65.754,207.184 66.167 C 206.965 66.579,206.609 67.155,206.393 67.447 C 206.177 67.739,206.000 68.052,206.000 68.142 C 206.000 68.232,205.941 68.331,205.868 68.361 C 205.796 68.392,205.526 68.867,205.270 69.417 C 205.013 69.967,204.437 71.068,203.989 71.864 C 203.542 72.660,202.923 73.785,202.615 74.364 C 202.306 74.943,201.798 75.829,201.485 76.333 C 201.173 76.837,200.804 77.452,200.667 77.699 C 199.846 79.171,195.931 82.844,194.191 83.774 L 193.300 84.250 197.525 84.301 C 200.298 84.335,202.065 84.286,202.667 84.158 C 204.049 83.866,206.929 82.870,207.718 82.412 C 208.102 82.189,208.754 81.837,209.167 81.630 C 209.978 81.223,213.498 77.888,213.861 77.182 C 213.983 76.945,214.123 76.712,214.172 76.667 C 214.222 76.621,214.554 76.022,214.910 75.337 C 215.267 74.651,215.695 73.943,215.863 73.764 C 216.030 73.584,216.167 73.369,216.167 73.286 C 216.167 73.203,216.308 72.936,216.480 72.692 C 216.652 72.449,217.150 71.575,217.587 70.750 C 218.023 69.925,218.830 68.500,219.381 67.583 C 219.931 66.667,221.086 64.532,221.947 62.840 C 222.807 61.148,223.622 59.642,223.756 59.494 C 223.890 59.345,224.000 59.136,224.000 59.029 C 224.000 58.921,224.057 58.833,224.126 58.833 C 224.195 58.833,224.356 58.590,224.484 58.292 C 224.612 57.994,225.256 56.813,225.916 55.667 C 227.644 52.666,227.949 52.115,228.968 50.167 C 229.471 49.204,230.008 48.229,230.162 48.000 C 230.315 47.771,230.631 47.208,230.864 46.750 C 232.325 43.877,233.785 41.148,234.737 39.510 C 235.340 38.473,235.833 37.598,235.833 37.567 C 235.833 37.318,237.631 34.590,238.200 33.976 C 239.657 32.402,241.963 30.904,243.417 30.588 C 248.818 29.413,253.286 31.714,256.112 37.125 C 256.531 37.927,256.940 38.655,257.020 38.742 C 257.101 38.829,257.167 39.035,257.167 39.200 C 257.167 39.365,257.242 39.500,257.333 39.500 C 257.425 39.500,257.500 39.650,257.500 39.833 C 257.500 40.017,257.567 40.167,257.649 40.167 C 257.730 40.167,258.581 41.723,259.540 43.625 C 261.345 47.207,261.836 48.126,262.329 48.833 C 262.489 49.063,263.145 50.262,263.789 51.500 C 264.432 52.737,265.240 54.275,265.585 54.917 C 267.321 58.147,267.560 58.674,267.371 58.862 C 267.236 58.998,264.417 59.048,257.300 59.042 C 251.864 59.038,246.113 59.083,244.519 59.142 L 241.622 59.250 241.348 59.750 C 240.769 60.810,240.102 61.927,239.905 62.167 C 239.508 62.652,236.667 68.128,236.667 68.409 C 236.667 68.555,235.944 69.571,235.792 69.639 C 235.723 69.669,235.667 69.801,235.667 69.931 C 235.667 70.060,235.592 70.167,235.500 70.167 C 235.408 70.167,235.333 70.279,235.333 70.416 C 235.333 70.636,237.630 70.670,254.618 70.708 L 273.902 70.750 274.780 72.500 C 275.262 73.462,275.659 74.344,275.662 74.458 C 275.664 74.573,275.723 74.667,275.792 74.668 C 275.860 74.669,276.000 74.837,276.102 75.043 C 277.277 77.417,279.902 82.464,280.140 82.808 C 280.309 83.051,280.553 83.494,280.681 83.792 L 280.915 84.333 312.321 84.333 C 335.239 84.333,343.887 84.282,344.322 84.145 C 345.606 83.738,346.944 83.273,347.500 83.042 C 347.821 82.909,348.233 82.741,348.417 82.671 C 351.286 81.564,355.134 78.350,356.040 76.303 C 356.154 76.045,356.305 75.833,356.374 75.833 C 356.443 75.833,356.500 75.730,356.500 75.604 C 356.500 75.477,356.600 75.291,356.723 75.189 C 357.212 74.784,358.343 71.914,359.032 69.333 C 359.806 66.433,359.567 62.266,358.454 59.250 C 357.763 57.378,357.575 56.910,357.481 56.833 C 357.424 56.788,357.328 56.589,357.267 56.392 C 357.106 55.878,355.978 54.172,355.405 53.576 C 355.136 53.297,354.550 52.634,354.101 52.102 C 352.779 50.533,350.474 48.972,347.833 47.859 C 347.329 47.646,346.767 47.409,346.583 47.332 C 346.208 47.174,345.848 47.093,343.833 46.716 C 342.602 46.486,340.166 46.448,325.167 46.429 C 313.083 46.413,307.817 46.352,307.583 46.224 C 307.400 46.125,306.933 45.902,306.547 45.730 C 305.151 45.109,302.833 42.743,302.833 41.941 C 302.833 41.801,302.766 41.645,302.684 41.594 C 302.351 41.388,302.169 38.813,302.401 37.583 C 302.527 36.914,302.652 36.568,303.148 35.513 C 303.541 34.678,304.972 33.309,305.923 32.857 C 306.378 32.640,306.867 32.405,307.010 32.333 C 308.149 31.764,308.812 31.750,334.792 31.750 L 360.333 31.750 360.333 25.956 L 360.333 20.162 333.958 20.222 C 315.297 20.265,307.315 20.338,306.667 20.470 C 306.162 20.573,305.468 20.706,305.123 20.764 C 304.779 20.822,304.456 20.937,304.405 21.018 C 304.355 21.100,304.177 21.167,304.011 21.167 C 303.371 21.167,300.765 22.417,298.833 23.651 C 296.226 25.316,293.829 28.315,292.494 31.583 C 289.970 37.758,290.252 42.964,293.416 48.583 C 293.674 49.042,293.967 49.570,294.067 49.757 C 295.672 52.750,299.638 55.820,303.615 57.149 C 306.219 58.018,305.782 58.000,323.831 58.000 C 342.115 58.000,342.105 58.000,343.953 58.868 C 350.108 61.759,349.376 70.633,342.833 72.444 C 341.870 72.711,293.599 72.765,292.720 72.500 C 292.416 72.408,291.885 72.251,291.542 72.151 C 288.311 71.208,285.862 68.860,283.717 64.649 C 283.185 63.605,282.694 62.725,282.625 62.694 C 282.556 62.664,282.500 62.563,282.500 62.470 C 282.500 62.377,282.362 62.102,282.193 61.859 C 281.851 61.367,281.253 60.220,280.615 58.833 C 279.849 57.168,279.224 55.931,278.608 54.859 C 278.273 54.277,277.496 52.814,276.881 51.609 C 276.266 50.403,275.720 49.379,275.669 49.333 C 275.480 49.164,274.919 48.215,274.242 46.917 C 273.860 46.183,273.387 45.300,273.190 44.953 C 272.994 44.607,272.833 44.213,272.833 44.078 C 272.833 43.944,272.758 43.833,272.667 43.833 C 272.575 43.833,272.500 43.723,272.500 43.588 C 272.500 43.454,272.340 43.060,272.145 42.713 C 271.639 41.815,269.877 38.431,269.301 37.250 C 269.033 36.700,268.743 36.119,268.656 35.960 C 268.570 35.800,268.249 35.200,267.943 34.627 C 267.638 34.053,267.129 33.171,266.813 32.667 C 266.497 32.162,265.944 31.166,265.584 30.453 C 261.788 22.930,252.189 17.849,243.833 18.939 M78.500 20.178 C 58.229 20.253,51.548 20.326,50.917 20.481 C 50.458 20.593,49.839 20.727,49.540 20.778 C 49.241 20.829,48.956 20.937,48.905 21.018 C 48.855 21.100,48.659 21.167,48.471 21.167 C 48.027 21.167,44.542 22.880,43.250 23.732 C 41.251 25.052,39.510 26.976,38.255 29.250 C 38.002 29.708,37.654 30.282,37.481 30.526 C 37.308 30.769,37.167 31.048,37.167 31.146 C 37.167 31.243,37.034 31.569,36.872 31.870 C 34.333 36.575,34.980 44.064,38.384 49.378 C 38.723 49.907,39.000 50.407,39.000 50.489 C 39.000 50.572,39.056 50.664,39.125 50.694 C 39.194 50.725,39.473 51.050,39.745 51.417 C 40.427 52.335,42.325 54.104,43.558 54.970 C 45.254 56.162,47.704 57.157,50.667 57.857 C 51.394 58.029,55.226 58.065,69.250 58.034 C 85.057 57.998,87.031 58.022,88.000 58.264 C 91.586 59.157,93.753 61.567,94.117 65.068 C 94.360 67.398,92.182 71.007,89.940 71.992 C 88.276 72.723,89.198 72.701,61.567 72.676 L 35.167 72.652 35.165 77.868 C 35.164 80.736,35.117 83.365,35.060 83.708 L 34.956 84.333 62.091 84.333 C 77.390 84.333,89.450 84.269,89.738 84.185 C 92.915 83.267,95.004 82.413,97.154 81.153 C 98.260 80.505,100.613 78.215,101.590 76.833 C 101.947 76.329,102.280 75.879,102.330 75.833 C 102.523 75.658,104.000 72.615,104.000 72.395 C 104.000 72.267,104.074 72.032,104.164 71.873 C 106.071 68.511,105.740 61.748,103.438 57.000 C 103.105 56.313,102.832 55.656,102.833 55.542 C 102.833 55.427,102.758 55.333,102.667 55.333 C 102.575 55.333,102.500 55.261,102.500 55.173 C 102.500 55.084,102.346 54.840,102.159 54.631 C 101.971 54.421,101.269 53.571,100.599 52.741 C 99.001 50.763,97.700 49.762,94.968 48.412 C 94.306 48.085,93.687 47.757,93.591 47.683 C 93.495 47.609,93.229 47.495,93.000 47.429 C 89.457 46.421,89.992 46.445,70.291 46.401 L 52.332 46.361 50.933 45.684 C 47.788 44.162,46.156 40.519,47.105 37.136 C 47.255 36.603,47.442 36.167,47.522 36.167 C 47.602 36.167,47.667 36.053,47.667 35.913 C 47.667 35.175,49.439 33.265,50.600 32.753 C 50.957 32.595,51.400 32.400,51.583 32.319 C 52.681 31.836,54.057 31.807,76.667 31.796 C 89.362 31.790,101.119 31.751,102.792 31.709 L 105.833 31.634 105.833 25.918 C 105.833 20.860,105.803 20.191,105.570 20.101 C 105.425 20.046,105.293 20.018,105.278 20.039 C 105.263 20.061,93.212 20.123,78.500 20.178 M116.833 20.437 C 116.833 20.644,116.908 20.860,117.000 20.917 C 117.092 20.973,117.167 21.311,117.167 21.667 C 117.167 22.023,117.242 22.360,117.333 22.417 C 117.425 22.473,117.500 22.984,117.500 23.553 C 117.500 24.121,117.578 24.848,117.673 25.168 C 117.790 25.561,117.844 35.258,117.839 55.042 L 117.832 84.333 123.668 84.333 L 129.504 84.333 129.442 58.292 C 129.383 33.722,129.345 31.241,129.014 30.417 C 128.940 30.233,128.785 29.783,128.669 29.417 C 127.665 26.229,123.120 21.167,121.262 21.167 C 121.118 21.167,121.000 21.100,121.000 21.019 C 121.000 20.938,120.794 20.829,120.542 20.776 C 120.290 20.724,119.708 20.600,119.250 20.500 C 117.109 20.033,116.833 20.026,116.833 20.437 M140.837 42.184 C 140.830 57.819,140.882 64.499,141.015 65.226 C 141.252 66.517,141.988 69.642,142.159 70.083 C 142.230 70.267,142.367 70.604,142.464 70.833 C 142.560 71.063,142.739 71.511,142.861 71.830 C 143.803 74.285,145.999 77.244,148.245 79.083 C 148.693 79.450,149.140 79.828,149.238 79.923 C 149.586 80.259,150.591 80.971,151.167 81.289 C 151.487 81.467,152.087 81.798,152.500 82.025 C 154.083 82.896,156.284 83.639,158.804 84.152 C 159.919 84.380,185.484 84.406,186.238 84.181 C 187.676 83.751,190.781 82.758,191.000 82.658 C 191.269 82.535,192.671 81.826,193.750 81.268 C 194.647 80.804,197.810 77.641,198.519 76.500 C 198.832 75.996,199.305 75.171,199.570 74.667 C 199.835 74.162,200.191 73.551,200.360 73.308 C 200.528 73.064,200.667 72.821,200.667 72.766 C 200.667 72.711,191.596 72.667,180.510 72.667 C 167.252 72.667,160.318 72.610,160.250 72.500 C 160.193 72.408,159.970 72.333,159.753 72.333 C 157.151 72.333,153.071 67.617,152.473 63.917 C 152.293 62.800,152.266 29.704,152.441 23.792 L 152.548 20.167 146.697 20.167 L 140.846 20.167 140.837 42.184 " stroke="none" fill="#e87c23" fill-rule="evenodd"/><path id="path3" d="M243.245 16.835 C 242.600 16.917,241.887 17.058,241.661 17.148 L 241.250 17.312 241.667 17.319 C 241.896 17.322,242.383 17.252,242.750 17.163 C 243.871 16.891,248.626 16.951,250.280 17.258 C 258.604 18.804,264.047 22.991,268.250 31.083 C 269.384 33.266,271.022 36.349,273.252 40.500 C 273.917 41.737,274.892 43.575,275.418 44.583 C 275.945 45.592,276.733 47.092,277.170 47.917 C 282.329 57.662,283.863 60.569,285.347 63.410 C 287.372 67.289,288.520 68.678,290.500 69.642 C 292.765 70.744,291.576 70.698,318.000 70.712 L 341.917 70.724 342.833 70.365 C 347.015 68.729,347.242 62.627,343.195 60.633 L 342.417 60.250 324.667 60.151 C 305.830 60.047,306.772 60.086,303.826 59.276 C 298.662 57.856,293.677 53.809,291.272 49.083 C 290.945 48.442,290.675 48.018,290.672 48.142 C 290.654 48.884,292.735 52.045,294.387 53.783 C 296.354 55.855,299.416 57.915,301.917 58.852 C 306.083 60.411,304.903 60.333,324.361 60.333 C 339.673 60.333,341.494 60.361,342.373 60.608 C 346.551 61.780,347.155 67.792,343.309 69.922 L 342.417 70.417 317.750 70.417 L 293.083 70.417 291.755 69.941 C 288.881 68.912,287.862 67.802,285.382 63.000 C 284.553 61.396,283.724 59.821,283.539 59.500 C 283.354 59.179,282.825 58.167,282.364 57.250 C 281.902 56.333,281.210 55.021,280.826 54.333 C 280.442 53.646,279.527 51.921,278.794 50.500 C 278.061 49.079,277.366 47.764,277.250 47.577 C 277.134 47.391,276.304 45.816,275.405 44.077 C 274.507 42.339,273.464 40.392,273.088 39.750 C 272.711 39.108,271.853 37.496,271.181 36.167 C 270.509 34.837,269.902 33.675,269.832 33.583 C 269.763 33.492,269.236 32.517,268.662 31.417 C 266.960 28.153,266.345 27.159,265.109 25.667 C 261.495 21.303,257.723 18.882,252.417 17.518 C 250.002 16.897,249.395 16.812,247.000 16.751 C 245.579 16.716,243.889 16.753,243.245 16.835 M240.000 17.505 C 239.771 17.580,238.946 17.843,238.167 18.089 C 232.954 19.740,227.787 23.905,225.185 28.553 C 225.022 28.844,224.639 29.533,224.336 30.083 C 224.032 30.633,223.430 31.721,222.997 32.500 C 222.565 33.279,221.762 34.779,221.212 35.833 C 220.663 36.887,219.992 38.125,219.721 38.583 C 219.165 39.522,218.225 41.222,217.370 42.833 C 217.054 43.429,216.252 44.892,215.588 46.083 C 214.925 47.275,214.022 48.925,213.583 49.750 C 213.143 50.575,212.730 51.325,212.663 51.417 C 212.536 51.592,210.884 54.610,209.834 56.583 C 209.493 57.225,209.042 58.050,208.832 58.417 C 207.373 60.968,204.577 66.047,203.374 68.333 C 202.867 69.296,202.370 70.171,202.268 70.279 C 202.053 70.506,162.680 70.649,161.250 70.427 C 158.111 69.941,155.478 67.342,154.765 64.026 C 154.583 63.176,154.524 63.053,154.515 63.500 C 154.479 65.321,156.014 67.947,157.858 69.217 C 160.373 70.949,160.105 70.936,186.995 70.712 C 202.210 70.585,202.409 70.579,202.579 70.248 C 203.083 69.261,205.916 64.077,207.178 61.833 C 208.406 59.648,210.309 56.186,213.132 51.000 C 213.456 50.404,214.221 49.017,214.832 47.917 C 215.443 46.817,216.344 45.167,216.834 44.250 C 217.323 43.333,218.110 41.908,218.583 41.083 C 219.055 40.258,219.840 38.833,220.328 37.917 C 220.816 37.000,221.644 35.462,222.169 34.500 C 222.695 33.537,223.408 32.225,223.754 31.583 C 224.100 30.942,224.608 30.004,224.882 29.500 C 228.142 23.512,233.159 19.667,240.417 17.594 C 240.889 17.460,241.070 17.359,240.833 17.363 C 240.604 17.366,240.229 17.430,240.000 17.505 M113.542 17.777 C 113.249 17.895,113.283 18.290,113.631 18.808 C 114.156 19.587,114.717 20.994,115.204 22.750 L 115.574 24.083 115.624 55.154 C 115.659 77.472,115.725 86.286,115.857 86.445 C 116.157 86.806,131.209 86.767,131.571 86.405 C 131.888 86.088,131.975 36.798,131.665 33.417 C 131.381 30.316,129.950 25.833,129.146 25.528 C 129.066 25.497,129.000 25.398,129.000 25.308 C 129.000 24.229,125.258 20.735,122.638 19.365 C 120.331 18.159,114.931 17.217,113.542 17.777 M116.656 18.005 C 123.770 18.635,129.058 23.206,131.021 30.424 C 131.394 31.797,131.833 78.606,131.525 84.255 L 131.417 86.250 123.843 86.293 C 119.504 86.318,116.206 86.273,116.120 86.187 C 116.032 86.098,115.977 73.867,115.988 56.560 C 116.010 22.228,116.059 23.304,114.311 19.697 C 113.333 17.678,113.292 17.707,116.656 18.005 M52.083 18.109 C 46.920 18.720,42.790 20.730,39.230 24.365 C 37.946 25.676,36.167 27.937,36.167 28.258 C 36.167 28.309,35.978 28.628,35.747 28.967 C 34.321 31.061,33.336 35.206,33.318 39.199 C 33.306 41.617,33.371 42.261,33.856 44.583 C 35.105 50.557,40.419 56.674,46.250 58.852 C 50.230 60.338,48.396 60.222,69.417 60.325 L 88.083 60.417 88.887 60.815 C 90.624 61.678,91.596 63.136,91.845 65.250 L 91.982 66.417 91.922 65.148 C 91.826 63.101,90.803 61.508,89.021 60.630 L 88.250 60.250 69.750 60.158 C 49.351 60.056,50.680 60.126,47.263 58.984 C 28.684 52.777,28.980 25.607,47.695 19.316 C 51.278 18.112,49.919 18.158,80.417 18.207 L 107.750 18.250 107.793 25.958 C 107.817 30.198,107.817 33.685,107.793 33.706 C 107.769 33.728,95.338 33.784,80.167 33.831 L 52.583 33.917 51.801 34.302 C 47.770 36.288,47.879 42.017,51.987 44.041 L 52.750 44.417 71.417 44.506 C 93.055 44.609,91.178 44.445,95.837 46.635 C 110.857 53.691,111.079 76.237,96.205 83.957 C 91.463 86.418,94.037 86.250,61.167 86.250 L 33.083 86.250 33.040 78.542 C 33.016 74.302,33.016 70.816,33.040 70.794 C 33.064 70.773,45.533 70.716,60.750 70.669 L 88.417 70.583 89.132 70.201 C 90.428 69.509,91.860 67.650,91.821 66.710 C 91.814 66.549,91.686 66.736,91.536 67.127 C 91.109 68.239,90.174 69.332,89.167 69.900 L 88.250 70.417 60.763 70.462 C 41.045 70.494,33.213 70.559,33.055 70.690 C 32.772 70.925,32.726 85.821,33.006 86.344 C 33.240 86.782,86.294 86.850,89.250 86.416 C 96.558 85.343,103.465 80.146,105.752 74.000 C 105.905 73.587,106.094 73.100,106.170 72.917 C 106.490 72.150,107.066 69.974,107.318 68.573 C 107.553 67.271,107.553 63.396,107.318 62.093 C 107.069 60.714,106.501 58.554,106.174 57.750 C 106.100 57.567,105.829 56.897,105.572 56.262 C 104.403 53.377,99.391 47.667,98.026 47.667 C 97.935 47.667,97.836 47.610,97.806 47.542 C 97.658 47.209,94.476 45.658,92.917 45.159 C 90.095 44.256,90.848 44.286,71.614 44.323 C 52.679 44.361,52.779 44.365,51.500 43.568 C 47.950 41.356,48.471 35.605,52.333 34.365 C 52.752 34.230,60.654 34.160,80.316 34.115 C 106.747 34.055,107.724 34.042,107.941 33.745 C 108.305 33.248,108.270 18.627,107.905 18.262 C 107.664 18.021,54.069 17.874,52.083 18.109 M138.753 18.208 C 138.333 19.467,138.575 65.881,139.006 66.872 C 139.123 67.138,139.134 66.955,139.044 66.250 C 138.974 65.700,138.917 54.675,138.917 41.750 L 138.917 18.250 146.617 18.207 L 154.318 18.163 154.406 18.707 C 154.455 19.006,154.523 19.475,154.556 19.750 C 154.602 20.130,154.623 20.082,154.642 19.553 C 154.655 19.169,154.594 18.663,154.504 18.428 L 154.342 18.000 146.582 18.000 C 140.523 18.000,138.808 18.046,138.753 18.208 M307.417 18.109 C 304.545 18.449,299.167 20.242,299.167 20.860 C 299.167 20.937,299.089 21.000,298.995 21.000 C 298.068 21.000,293.709 24.972,292.285 27.114 C 289.616 31.129,288.248 36.807,288.819 41.500 C 289.115 43.938,290.028 47.237,290.547 47.750 C 290.661 47.862,290.676 47.808,290.595 47.583 C 288.628 42.158,288.472 37.353,290.097 32.221 C 292.457 24.768,299.199 19.363,307.417 18.336 C 308.487 18.202,316.555 18.163,335.583 18.199 L 362.250 18.250 362.293 25.906 C 362.327 31.920,362.292 33.590,362.127 33.695 C 362.011 33.768,349.901 33.829,335.215 33.831 C 308.888 33.833,308.500 33.838,307.618 34.168 C 303.298 35.784,303.219 41.979,307.492 43.983 L 308.417 44.417 326.333 44.508 C 346.139 44.608,344.884 44.538,347.940 45.718 C 354.227 48.146,358.625 52.805,360.556 59.083 C 360.697 59.542,360.817 59.766,360.823 59.582 C 360.829 59.398,360.608 58.611,360.333 57.834 C 357.981 51.181,352.127 46.146,344.917 44.573 C 343.692 44.306,342.244 44.285,327.166 44.318 C 307.252 44.360,307.752 44.399,305.994 42.682 C 303.452 40.200,304.234 35.899,307.492 34.447 C 308.241 34.113,308.566 34.108,335.250 34.037 C 353.169 33.989,362.320 33.907,362.458 33.795 C 362.754 33.555,362.762 18.495,362.467 18.200 C 362.281 18.015,308.957 17.927,307.417 18.109 M154.576 29.250 C 154.576 32.825,154.598 34.264,154.625 32.447 C 154.652 30.631,154.652 27.706,154.625 25.947 C 154.598 24.189,154.576 25.675,154.576 29.250 M245.000 32.500 C 244.596 32.585,244.959 32.630,246.177 32.645 C 248.147 32.669,249.295 33.009,250.777 34.006 C 252.566 35.210,252.915 35.685,255.000 39.754 C 255.844 41.402,256.594 42.825,256.666 42.917 C 256.737 43.008,257.487 44.433,258.331 46.083 C 259.175 47.733,259.925 49.158,259.999 49.250 C 260.073 49.342,260.562 50.242,261.086 51.250 C 261.611 52.258,262.448 53.852,262.946 54.792 C 263.444 55.732,263.806 56.576,263.750 56.667 C 263.683 56.775,259.589 56.833,252.105 56.833 C 243.124 56.833,240.505 56.880,240.300 57.042 C 240.155 57.156,239.703 57.887,239.295 58.667 C 238.888 59.446,237.960 61.133,237.234 62.417 C 236.508 63.700,235.765 65.026,235.582 65.363 C 235.400 65.700,234.639 67.050,233.892 68.363 C 231.573 72.438,231.607 72.369,231.788 72.655 C 231.937 72.890,233.971 72.917,252.137 72.917 C 269.869 72.917,272.348 72.947,272.544 73.167 C 272.666 73.304,272.988 73.904,273.258 74.499 C 273.529 75.095,274.056 76.145,274.431 76.833 C 275.545 78.878,276.399 80.474,277.419 82.417 C 277.949 83.425,278.559 84.530,278.775 84.872 C 278.990 85.214,279.167 85.540,279.167 85.596 C 279.167 85.652,279.323 85.918,279.514 86.186 L 279.861 86.674 311.722 86.620 C 346.453 86.561,344.113 86.624,347.167 85.659 C 355.694 82.962,361.662 74.522,361.666 65.154 C 361.667 63.533,361.262 60.622,360.972 60.167 C 360.859 59.989,360.839 60.061,360.904 60.417 C 363.251 73.332,355.871 84.386,343.718 86.159 C 342.915 86.276,332.175 86.333,311.191 86.333 L 279.862 86.333 279.382 85.542 C 279.117 85.106,278.576 84.112,278.177 83.333 C 277.779 82.554,277.399 81.842,277.332 81.750 C 277.174 81.534,275.424 78.240,273.834 75.167 L 272.583 72.750 252.250 72.667 C 234.887 72.596,231.924 72.549,231.967 72.349 C 232.014 72.130,233.998 68.552,237.244 62.833 C 237.998 61.504,238.971 59.742,239.406 58.917 C 239.842 58.092,240.248 57.363,240.310 57.298 C 240.371 57.232,245.588 57.170,251.902 57.159 C 258.217 57.148,263.554 57.075,263.762 56.996 C 264.236 56.815,264.167 56.494,263.331 55.006 C 262.994 54.407,262.171 52.867,261.501 51.583 C 260.832 50.300,259.818 48.387,259.248 47.333 C 258.197 45.387,257.609 44.270,254.815 38.917 C 252.104 33.720,248.962 31.666,245.000 32.500 M242.583 33.230 C 240.268 34.324,239.279 35.381,237.496 38.667 C 236.923 39.721,236.230 40.996,235.956 41.500 C 235.681 42.004,235.192 42.904,234.869 43.500 C 234.545 44.096,233.591 45.821,232.748 47.333 C 230.777 50.870,228.449 55.132,227.331 57.250 C 226.847 58.167,226.173 59.404,225.833 60.000 C 225.494 60.596,224.973 61.533,224.677 62.083 C 224.205 62.959,223.071 65.033,219.163 72.167 C 217.534 75.139,217.300 75.547,216.531 76.750 C 212.845 82.516,208.552 85.318,202.113 86.162 C 200.345 86.394,160.819 86.394,159.333 86.162 C 149.439 84.619,142.014 77.979,139.488 68.417 C 139.181 67.252,139.165 67.820,139.470 69.083 C 140.696 74.160,144.528 79.492,149.167 82.575 C 150.646 83.558,153.552 85.000,154.055 85.000 C 154.171 85.000,154.338 85.064,154.425 85.141 C 154.706 85.392,157.701 86.155,159.417 86.414 C 161.866 86.783,198.875 86.789,202.001 86.422 C 205.770 85.978,208.697 84.863,211.389 82.844 C 212.932 81.687,216.333 77.959,216.333 77.425 C 216.333 77.362,216.514 77.072,216.736 76.781 C 217.287 76.053,218.645 73.680,219.995 71.083 C 220.615 69.892,221.366 68.504,221.666 68.000 C 221.965 67.496,222.510 66.521,222.878 65.833 C 224.242 63.287,224.645 62.551,225.131 61.727 C 225.588 60.952,226.022 60.154,227.881 56.667 C 228.248 55.979,228.826 54.929,229.167 54.333 C 229.507 53.737,230.199 52.462,230.705 51.500 C 231.211 50.538,232.017 49.075,232.496 48.250 C 232.975 47.425,233.821 45.887,234.376 44.833 C 234.931 43.779,235.440 42.842,235.508 42.750 C 235.659 42.547,236.121 41.711,237.566 39.025 C 239.673 35.109,240.460 34.356,244.000 32.865 C 244.354 32.716,244.367 32.688,244.083 32.684 C 243.900 32.681,243.225 32.927,242.583 33.230 M154.552 37.250 C 154.553 37.800,154.584 38.005,154.621 37.705 C 154.658 37.406,154.657 36.956,154.619 36.705 C 154.581 36.455,154.551 36.700,154.552 37.250 M154.375 43.583 C 154.377 43.950,154.411 44.080,154.451 43.873 C 154.491 43.666,154.490 43.366,154.448 43.206 C 154.406 43.047,154.374 43.217,154.375 43.583 M154.553 57.333 C 154.553 57.929,154.584 58.173,154.621 57.875 C 154.658 57.577,154.658 57.090,154.621 56.792 C 154.584 56.494,154.553 56.737,154.553 57.333 M154.385 61.750 C 154.386 62.300,154.417 62.505,154.454 62.205 C 154.491 61.906,154.490 61.456,154.452 61.205 C 154.414 60.955,154.384 61.200,154.385 61.750 " stroke="none" fill="#a4a3a1" fill-rule="evenodd"/><path id="path4" d="M244.417 17.026 C 236.066 17.572,228.790 22.279,224.748 29.750 C 223.387 32.264,223.182 32.643,222.214 34.417 C 221.664 35.425,220.816 37.000,220.328 37.917 C 219.840 38.833,219.055 40.258,218.583 41.083 C 218.110 41.908,217.323 43.333,216.834 44.250 C 216.344 45.167,215.443 46.817,214.832 47.917 C 214.221 49.017,213.456 50.404,213.132 51.000 C 210.309 56.186,208.406 59.648,207.178 61.833 C 205.916 64.077,203.083 69.261,202.579 70.248 C 202.398 70.602,180.705 70.928,166.417 70.790 C 159.209 70.721,157.144 69.883,155.307 66.281 C 154.449 64.600,154.486 65.738,154.498 41.546 C 154.503 29.150,154.461 18.818,154.402 18.586 L 154.296 18.163 146.607 18.207 L 138.917 18.250 138.864 41.250 C 138.826 58.165,138.864 64.625,139.008 65.667 C 140.501 76.502,148.388 84.455,159.333 86.162 C 160.819 86.394,200.345 86.394,202.113 86.162 C 208.552 85.318,212.845 82.516,216.531 76.750 C 217.300 75.547,217.534 75.139,219.163 72.167 C 223.071 65.033,224.205 62.959,224.677 62.083 C 224.973 61.533,225.494 60.596,225.833 60.000 C 226.173 59.404,226.847 58.167,227.331 57.250 C 228.449 55.132,230.777 50.870,232.748 47.333 C 233.591 45.821,234.545 44.096,234.869 43.500 C 235.192 42.904,235.681 42.004,235.956 41.500 C 236.230 40.996,236.922 39.721,237.493 38.667 C 239.670 34.649,241.626 33.044,245.010 32.500 C 249.238 31.821,252.085 33.684,254.815 38.917 C 257.609 44.270,258.197 45.387,259.248 47.333 C 259.818 48.387,260.832 50.300,261.501 51.583 C 262.171 52.867,262.994 54.407,263.331 55.006 C 264.167 56.494,264.236 56.815,263.762 56.996 C 263.554 57.075,258.217 57.148,251.902 57.159 C 245.588 57.170,240.371 57.232,240.310 57.298 C 240.248 57.363,239.842 58.092,239.406 58.917 C 238.971 59.742,237.998 61.504,237.244 62.833 C 233.998 68.552,232.014 72.130,231.967 72.349 C 231.924 72.549,234.887 72.596,252.250 72.667 L 272.583 72.750 273.834 75.167 C 275.424 78.240,277.174 81.534,277.332 81.750 C 277.399 81.842,277.779 82.554,278.177 83.333 C 278.576 84.112,279.117 85.106,279.382 85.542 L 279.862 86.333 311.191 86.333 C 342.848 86.333,343.508 86.322,346.000 85.724 C 356.829 83.125,363.665 71.161,360.745 59.917 C 360.602 59.367,360.425 58.692,360.350 58.417 C 358.937 53.173,353.900 48.020,347.940 45.718 C 344.884 44.538,346.139 44.608,326.333 44.508 L 308.417 44.417 307.492 43.983 C 303.219 41.979,303.298 35.784,307.618 34.168 C 308.500 33.838,308.888 33.833,335.215 33.831 C 349.901 33.829,362.011 33.768,362.127 33.695 C 362.292 33.590,362.327 31.920,362.293 25.906 L 362.250 18.250 335.583 18.199 C 307.444 18.146,307.361 18.147,304.406 18.916 C 292.554 21.998,286.128 34.433,290.194 46.417 C 292.287 52.585,297.551 57.551,303.826 59.276 C 306.772 60.086,305.830 60.047,324.667 60.151 L 342.417 60.250 343.195 60.633 C 347.242 62.627,347.015 68.729,342.833 70.365 L 341.917 70.724 318.000 70.712 C 291.576 70.698,292.765 70.744,290.500 69.642 C 288.520 68.678,287.372 67.289,285.347 63.410 C 283.863 60.569,282.329 57.662,277.170 47.917 C 276.733 47.092,275.945 45.592,275.418 44.583 C 274.892 43.575,273.917 41.737,273.252 40.500 C 271.022 36.349,269.384 33.266,268.250 31.083 C 263.090 21.149,254.933 16.338,244.417 17.026 M113.731 18.072 C 113.681 18.203,113.942 18.935,114.311 19.697 C 116.059 23.304,116.010 22.228,115.988 56.560 C 115.977 73.867,116.032 86.098,116.120 86.187 C 116.206 86.273,119.504 86.318,123.843 86.293 L 131.417 86.250 131.525 84.255 C 131.833 78.606,131.394 31.797,131.021 30.424 C 129.058 23.206,123.770 18.635,116.656 18.005 C 114.144 17.783,113.840 17.789,113.731 18.072 M50.950 18.510 C 40.516 20.349,33.502 28.669,33.488 39.222 C 33.475 49.450,39.865 57.402,50.000 59.773 C 51.139 60.040,52.900 60.074,69.750 60.158 L 88.250 60.250 89.021 60.630 C 92.892 62.537,92.957 68.159,89.132 70.201 L 88.417 70.583 60.750 70.669 C 45.533 70.716,33.064 70.773,33.040 70.794 C 33.016 70.816,33.016 74.302,33.040 78.542 L 33.083 86.250 61.167 86.250 C 94.037 86.250,91.463 86.418,96.205 83.957 C 111.079 76.237,110.857 53.691,95.837 46.635 C 91.178 44.445,93.055 44.609,71.417 44.506 L 52.750 44.417 51.987 44.041 C 47.879 42.017,47.770 36.288,51.801 34.302 L 52.583 33.917 80.167 33.831 C 95.338 33.784,107.769 33.728,107.793 33.706 C 107.817 33.685,107.817 30.198,107.793 25.958 L 107.750 18.250 80.250 18.222 C 53.889 18.194,52.675 18.206,50.950 18.510 M249.582 18.587 C 257.834 19.812,263.167 24.279,268.280 34.250 C 268.468 34.617,268.905 35.442,269.251 36.083 C 269.597 36.725,270.495 38.450,271.247 39.917 C 274.080 45.444,275.564 48.246,276.473 49.788 C 276.751 50.260,277.593 51.832,278.343 53.281 C 279.093 54.731,279.838 56.142,280.000 56.417 C 280.161 56.692,281.114 58.529,282.117 60.500 C 286.368 68.853,287.376 70.020,291.750 71.649 L 292.917 72.083 317.372 72.128 C 344.987 72.178,342.681 72.283,344.792 70.881 C 348.621 68.340,348.471 62.187,344.521 59.816 C 342.469 58.584,343.590 58.653,324.270 58.567 C 314.652 58.524,306.620 58.421,306.250 58.337 C 305.883 58.252,305.171 58.099,304.667 57.995 C 295.429 56.092,288.725 45.261,290.738 35.491 C 292.378 27.528,296.743 22.899,305.083 20.277 L 306.750 19.753 333.083 19.707 C 361.543 19.657,360.193 19.614,360.584 20.570 C 360.809 21.118,360.805 30.803,360.580 31.511 C 360.310 32.362,361.218 32.333,334.162 32.333 C 307.328 32.333,308.218 32.306,306.390 33.188 C 301.867 35.371,301.606 42.232,305.950 44.778 C 307.965 45.959,306.597 45.880,324.583 45.863 C 343.720 45.846,344.268 45.879,347.583 47.245 C 347.858 47.358,348.524 47.625,349.064 47.837 C 350.642 48.459,352.469 49.760,354.176 51.479 C 365.024 62.403,360.059 80.566,345.191 84.351 L 343.298 84.833 312.255 84.833 C 281.221 84.833,281.211 84.833,280.778 84.492 C 280.222 84.055,278.544 81.082,276.172 76.333 C 275.142 74.271,274.098 72.283,273.852 71.917 L 273.404 71.250 254.604 71.167 L 235.804 71.083 235.485 70.690 C 235.065 70.171,234.980 70.445,236.562 67.242 C 237.793 64.750,238.711 63.106,240.683 59.865 C 241.573 58.402,240.609 58.500,254.117 58.497 C 260.898 58.496,266.186 58.430,266.320 58.345 C 266.750 58.073,266.484 57.530,261.331 48.167 C 260.347 46.379,259.142 44.092,258.652 43.083 C 258.163 42.075,257.490 40.762,257.158 40.167 C 256.653 39.259,255.983 38.031,254.931 36.081 C 252.757 32.050,247.587 29.953,243.167 31.307 C 240.034 32.267,238.202 34.261,234.877 40.333 C 233.849 42.212,232.096 45.472,231.203 47.167 C 229.994 49.462,226.351 56.034,225.291 57.833 C 224.377 59.385,223.638 60.747,222.127 63.667 C 221.581 64.721,221.075 65.658,221.001 65.750 C 220.927 65.842,220.549 66.517,220.161 67.250 C 219.772 67.983,218.835 69.671,218.079 71.000 C 217.322 72.329,216.537 73.717,216.334 74.083 C 214.077 78.162,212.118 80.383,209.162 82.212 C 207.124 83.473,205.809 83.945,202.362 84.651 C 200.999 84.931,193.978 84.892,193.583 84.604 C 193.151 84.287,193.508 83.751,194.773 82.816 C 196.091 81.843,198.014 79.984,199.234 78.505 C 200.589 76.863,201.232 75.830,203.334 71.917 C 203.965 70.743,205.663 67.683,206.617 66.000 C 206.799 65.679,207.607 64.179,208.413 62.667 C 211.198 57.439,212.140 55.726,212.782 54.716 C 213.085 54.239,213.333 53.807,213.333 53.755 C 213.333 53.703,213.510 53.380,213.725 53.038 C 213.941 52.696,214.663 51.367,215.330 50.083 C 216.467 47.897,217.164 46.601,217.840 45.417 C 219.113 43.187,219.601 42.292,220.662 40.250 C 222.133 37.419,222.613 36.549,223.837 34.500 C 224.357 33.629,225.280 31.967,225.887 30.807 C 229.646 23.622,235.488 19.655,244.250 18.336 C 245.476 18.152,247.196 18.233,249.582 18.587 M105.782 20.069 L 106.250 20.472 106.218 25.824 C 106.200 28.768,106.139 31.324,106.082 31.505 C 105.838 32.273,106.689 32.248,79.583 32.291 C 52.576 32.335,52.499 32.337,51.001 33.115 C 45.497 35.970,46.512 44.271,52.535 45.660 C 52.980 45.763,59.504 45.827,69.833 45.831 C 87.515 45.837,89.274 45.899,91.833 46.617 C 102.320 49.557,108.475 61.115,104.996 71.333 C 102.630 78.283,97.720 82.746,90.610 84.410 L 88.804 84.833 62.098 84.833 L 35.391 84.833 35.002 84.419 L 34.612 84.004 34.647 78.544 L 34.682 73.083 35.095 72.667 L 35.508 72.250 61.879 72.167 L 88.250 72.083 89.235 71.675 C 94.241 69.600,94.930 62.716,90.424 59.799 C 88.493 58.548,89.695 58.618,69.417 58.577 L 51.250 58.540 49.644 58.123 C 44.124 56.687,40.163 53.708,37.504 48.991 C 37.043 48.174,36.667 47.459,36.667 47.402 C 36.667 47.345,36.490 46.948,36.275 46.519 C 32.890 39.780,35.700 28.801,42.054 23.933 C 44.397 22.139,48.557 20.333,51.500 19.833 C 51.913 19.763,64.190 19.697,78.782 19.686 L 105.315 19.667 105.782 20.069 M120.485 20.318 C 125.376 22.103,129.087 26.851,129.813 32.253 C 130.040 33.937,130.065 37.434,130.031 61.888 L 130.000 83.859 129.513 84.346 L 129.026 84.833 123.615 84.833 C 118.535 84.833,118.179 84.814,117.810 84.515 L 117.417 84.196 117.318 54.223 C 117.248 32.860,117.165 24.011,117.031 23.417 C 116.431 20.765,116.407 20.312,116.844 19.958 C 117.383 19.520,118.641 19.645,120.485 20.318 M152.537 20.130 L 152.917 20.510 152.931 42.046 L 152.946 63.583 153.316 64.911 C 154.257 68.290,156.254 70.470,159.508 71.670 L 160.856 72.167 180.053 72.168 C 202.765 72.169,201.506 72.038,200.408 74.284 C 197.759 79.703,193.264 83.087,186.917 84.441 C 185.086 84.831,185.068 84.832,172.583 84.831 L 160.083 84.829 158.035 84.419 C 154.972 83.805,151.237 82.311,150.333 81.338 C 150.287 81.289,149.688 80.824,149.000 80.305 C 144.724 77.078,142.081 72.889,140.816 67.333 L 140.342 65.250 140.338 43.150 C 140.333 19.990,140.329 20.131,141.063 19.827 C 141.961 19.456,152.132 19.724,152.537 20.130 " stroke="none" fill="#787474" fill-rule="evenodd"/></g></svg>