<?xml version="1.0" encoding="UTF-8"?>
<svg xmlns="http://www.w3.org/2000/svg" xmlns:xlink="http://www.w3.org/1999/xlink" width="531.55pt" height="200.13pt" viewBox="0 0 531.55 200.13" version="1.1">
<defs>
<clipPath id="clip1">
  <path d="M 358 0 L 531.550781 0 L 531.550781 113 L 358 113 Z M 358 0 "/>
</clipPath>
<clipPath id="clip2">
  <path d="M 343 144 L 379 144 L 379 200.128906 L 343 200.128906 Z M 343 144 "/>
</clipPath>
<clipPath id="clip3">
  <path d="M 339 140 L 382 140 L 382 200.128906 L 339 200.128906 Z M 339 140 "/>
</clipPath>
</defs>
<g id="surface1">
<path style=" stroke:none;fill-rule:nonzero;fill:rgb(100%,100%,100%);fill-opacity:1;" d="M 401.679688 14.386719 C 403.464844 12.890625 389.617188 8.554688 383.300781 7.34375 C 376.988281 6.140625 369.726563 4.261719 367.464844 7.410156 C 365.183594 10.5625 365.683594 20.492188 386.765625 39.058594 C 407.84375 57.613281 431.625 75.742188 461.632813 89.246094 C 491.632813 102.742188 526 108.859375 530.160156 98.457031 C 534.3125 88.054688 516.898438 79.96875 514.738281 79.710938 C 512.546875 79.441406 513.566406 80.121094 514.460938 81.890625 C 515.347656 83.65625 517.054688 86.9375 515.867188 89.90625 C 514.679688 92.886719 500.570313 92.285156 487.953125 88.601563 C 463.433594 81.453125 432.277344 64.234375 412.496094 48.523438 C 392.703125 32.804688 379.265625 20.238281 383.394531 16.515625 C 387.523438 12.78125 399.242188 16.457031 401.679688 14.386719 "/>
<g clip-path="url(#clip1)" clip-rule="nonzero">
<path style="fill:none;stroke-width:15;stroke-linecap:butt;stroke-linejoin:miter;stroke:rgb(100%,100%,100%);stroke-opacity:1;stroke-miterlimit:4;" d="M 4016.796875 1857.432813 C 4034.648438 1872.39375 3896.171875 1915.753125 3833.007813 1927.8625 C 3769.882813 1939.89375 3697.265625 1958.682813 3674.648438 1927.198438 C 3651.835938 1895.675 3656.835938 1796.378125 3867.65625 1610.714063 C 4078.4375 1425.167188 4316.25 1243.878125 4616.328125 1108.839063 C 4916.328125 973.878125 5260 912.70625 5301.601563 1016.729688 C 5343.125 1120.753125 5168.984375 1201.6125 5147.382813 1204.190625 C 5125.46875 1206.885938 5135.664063 1200.089063 5144.609375 1182.39375 C 5153.476563 1164.7375 5170.546875 1131.925 5158.671875 1102.2375 C 5146.796875 1072.432813 5005.703125 1078.448438 4879.53125 1115.284375 C 4634.335938 1186.76875 4322.773438 1358.95625 4124.960938 1516.065625 C 3927.03125 1673.253125 3792.65625 1798.917188 3833.945313 1836.14375 C 3875.234375 1873.4875 3992.421875 1836.729688 4016.796875 1857.432813 Z M 4016.796875 1857.432813 " transform="matrix(0.1,0,0,-0.1,0,200.13)"/>
</g>
<path style=" stroke:none;fill-rule:nonzero;fill:rgb(100%,100%,100%);fill-opacity:1;" d="M 396.882813 27.683594 C 394.585938 26.035156 412.210938 9.832031 424.386719 5.59375 C 436.566406 1.351563 460.042969 -2.9375 482.550781 10.472656 C 503.523438 22.960938 518.777344 50.066406 507.714844 82.125 C 506.3125 84.9375 493.5 84.78125 494.328125 81.804688 C 499.296875 63.585938 498.136719 36.8125 481.480469 23.394531 C 461.824219 7.558594 440.964844 5.851563 422.519531 12.808594 C 407.316406 18.515625 398.773438 29.046875 396.882813 27.683594 "/>
<path style="fill:none;stroke-width:15;stroke-linecap:butt;stroke-linejoin:miter;stroke:rgb(100%,100%,100%);stroke-opacity:1;stroke-miterlimit:4;" d="M 3968.828125 1724.464063 C 3945.859375 1740.948438 4122.109375 1902.979688 4243.867188 1945.3625 C 4365.664063 1987.784375 4600.429688 2030.675 4825.507813 1896.573438 C 5035.234375 1771.690625 5187.773438 1500.635938 5077.148438 1180.05 C 5063.125 1151.925 4935 1153.4875 4943.28125 1183.253125 C 4992.96875 1365.440625 4981.367188 1633.175 4814.804688 1767.354688 C 4618.242188 1925.714063 4409.648438 1942.784375 4225.195313 1873.214063 C 4073.164063 1816.14375 3987.734375 1710.83125 3968.828125 1724.464063 Z M 3968.828125 1724.464063 " transform="matrix(0.1,0,0,-0.1,0,200.13)"/>
<path style=" stroke:none;fill-rule:nonzero;fill:rgb(100%,100%,100%);fill-opacity:1;" d="M 455.371094 66.734375 C 453.425781 68.371094 463.980469 76.59375 466.597656 74.398438 C 475.101563 67.261719 489.875 42.140625 483.46875 34.425781 C 477.066406 26.714844 462.691406 26.066406 456.613281 30.511719 C 453.574219 32.734375 455.148438 41.828125 458.402344 40.640625 C 461.648438 39.445313 472.605469 35.199219 473.292969 38.574219 C 474.71875 45.5625 466.386719 57.445313 455.371094 66.734375 "/>
<path style="fill:none;stroke-width:15;stroke-linecap:butt;stroke-linejoin:miter;stroke:rgb(100%,100%,100%);stroke-opacity:1;stroke-miterlimit:4;" d="M 4553.710938 1333.95625 C 4534.257813 1317.589063 4639.804688 1235.3625 4665.976563 1257.315625 C 4751.015625 1328.682813 4898.75 1579.89375 4834.6875 1657.042188 C 4770.664063 1734.151563 4626.914063 1740.635938 4566.132813 1696.182813 C 4535.742188 1673.95625 4551.484375 1583.01875 4584.023438 1594.89375 C 4616.484375 1606.846875 4726.054688 1649.307813 4732.929688 1615.557813 C 4747.1875 1545.675 4663.867188 1426.846875 4553.710938 1333.95625 Z M 4553.710938 1333.95625 " transform="matrix(0.1,0,0,-0.1,0,200.13)"/>
<path style=" stroke:none;fill-rule:nonzero;fill:rgb(100%,100%,100%);fill-opacity:1;" d="M 461.535156 54.207031 C 458.75 54.667969 453.957031 52.101563 447.757813 44.761719 C 441.566406 37.421875 431.039063 22.15625 437.003906 17.84375 C 442.992188 13.550781 454.304688 16.441406 460.4375 19.90625 C 466.558594 23.359375 449.203125 17.546875 446.6875 24.351563 C 444.179688 31.15625 447.847656 36.679688 452.566406 43.421875 C 457.269531 50.183594 463.707031 53.867188 461.535156 54.207031 "/>
<path style="fill:none;stroke-width:15;stroke-linecap:butt;stroke-linejoin:miter;stroke:rgb(100%,100%,100%);stroke-opacity:1;stroke-miterlimit:4;" d="M 4615.351563 1459.229688 C 4587.5 1454.620313 4539.570313 1480.284375 4477.578125 1553.682813 C 4415.664063 1627.08125 4310.390625 1779.7375 4370.039063 1822.8625 C 4429.921875 1865.792188 4543.046875 1836.885938 4604.375 1802.2375 C 4665.585938 1767.70625 4492.03125 1825.83125 4466.875 1757.784375 C 4441.796875 1689.7375 4478.476563 1634.503125 4525.664063 1567.08125 C 4572.695313 1499.464063 4637.070313 1462.628125 4615.351563 1459.229688 Z M 4615.351563 1459.229688 " transform="matrix(0.1,0,0,-0.1,0,200.13)"/>
<path style=" stroke:none;fill-rule:nonzero;fill:rgb(100%,100%,100%);fill-opacity:1;" d="M 436.632813 44.386719 C 433.585938 46.039063 427.867188 48.679688 425.414063 48.929688 C 422.953125 49.183594 415.269531 45.996094 418.078125 43.773438 C 420.894531 41.566406 430.828125 36.136719 434.109375 35.800781 C 437.382813 35.46875 438.796875 43.199219 436.632813 44.386719 "/>
<path style="fill:none;stroke-width:20;stroke-linecap:butt;stroke-linejoin:miter;stroke:rgb(100%,100%,100%);stroke-opacity:1;stroke-miterlimit:4;" d="M 4366.328125 1557.432813 C 4335.859375 1540.909375 4278.671875 1514.503125 4254.140625 1512.003125 C 4229.53125 1509.464063 4152.695313 1541.339063 4180.78125 1563.565625 C 4208.945313 1585.635938 4308.28125 1639.932813 4341.09375 1643.292188 C 4373.828125 1646.6125 4387.96875 1569.307813 4366.328125 1557.432813 Z M 4366.328125 1557.432813 " transform="matrix(0.1,0,0,-0.1,0,200.13)"/>
<path style=" stroke:none;fill-rule:nonzero;fill:rgb(100%,100%,100%);fill-opacity:1;" d="M 358.160156 44.679688 C 362.082031 37.144531 377.609375 42.839844 376.6875 43.890625 C 375.398438 45.363281 372.070313 45.941406 369.835938 47.121094 C 366.085938 49.097656 369.273438 55.511719 376.21875 61.640625 C 388.636719 72.59375 405.726563 80.820313 419.109375 84.847656 C 422.863281 85.980469 413.613281 92.4375 409.886719 91.242188 C 391.480469 85.332031 370.34375 68.59375 364.796875 61.527344 C 359.921875 55.320313 355.652344 49.472656 358.160156 44.679688 "/>
<path style="fill:none;stroke-width:15;stroke-linecap:butt;stroke-linejoin:miter;stroke:rgb(100%,100%,100%);stroke-opacity:1;stroke-miterlimit:4;" d="M 3581.601563 1554.503125 C 3620.820313 1629.854688 3776.09375 1572.901563 3766.875 1562.39375 C 3753.984375 1547.667188 3720.703125 1541.885938 3698.359375 1530.089063 C 3660.859375 1510.323438 3692.734375 1446.182813 3762.1875 1384.89375 C 3886.367188 1275.3625 4057.265625 1193.096875 4191.09375 1152.823438 C 4228.632813 1141.495313 4136.132813 1076.925 4098.867188 1088.878125 C 3914.804688 1147.979688 3703.4375 1315.3625 3647.96875 1386.026563 C 3599.21875 1448.096875 3556.523438 1506.573438 3581.601563 1554.503125 Z M 3581.601563 1554.503125 " transform="matrix(0.1,0,0,-0.1,0,200.13)"/>
<path style=" stroke:none;fill-rule:nonzero;fill:rgb(100%,100%,100%);fill-opacity:1;" d="M 449.023438 99.128906 C 459.382813 101.765625 466.457031 103.226563 475.3125 102.9375 C 478.972656 102.792969 479.535156 103.949219 471.507813 106.085938 C 462.761719 108.421875 450.640625 107.453125 443.664063 104.765625 C 440.402344 103.503906 446.089844 98.382813 449.023438 99.128906 "/>
<path style="fill:none;stroke-width:20;stroke-linecap:butt;stroke-linejoin:miter;stroke:rgb(100%,100%,100%);stroke-opacity:1;stroke-miterlimit:4;" d="M 4490.234375 1010.010938 C 4593.828125 983.64375 4664.570313 969.034375 4753.125 971.925 C 4789.726563 973.370312 4795.351563 961.807812 4715.078125 940.440625 C 4627.617188 917.08125 4506.40625 926.76875 4436.640625 953.64375 C 4404.023438 966.260937 4460.898438 1017.471875 4490.234375 1010.010938 Z M 4490.234375 1010.010938 " transform="matrix(0.1,0,0,-0.1,0,200.13)"/>
<path style=" stroke:none;fill-rule:nonzero;fill:rgb(100%,100%,100%);fill-opacity:1;" d="M 493.21875 113.808594 C 480.476563 129.050781 460.425781 136.5625 445.066406 135.570313 C 432.28125 134.753906 421.121094 128.445313 413.492188 121.546875 C 407.199219 115.851563 414.800781 121.433594 423.46875 124.585938 C 430.847656 127.273438 440.296875 128.921875 448.835938 127.570313 C 458.675781 126.007813 471.921875 120.683594 480.429688 110.527344 C 483.023438 107.429688 495.585938 110.988281 493.21875 113.808594 "/>
<path style="fill:none;stroke-width:15;stroke-linecap:butt;stroke-linejoin:miter;stroke:rgb(100%,100%,100%);stroke-opacity:1;stroke-miterlimit:4;" d="M 4932.1875 863.214062 C 4804.765625 710.792187 4604.257813 635.675 4450.664063 645.596875 C 4322.8125 653.760937 4211.210938 716.846875 4134.921875 785.83125 C 4071.992188 842.784375 4148.007813 786.964062 4234.6875 755.440625 C 4308.476563 728.565625 4402.96875 712.08125 4488.359375 725.596875 C 4586.757813 741.221875 4719.21875 794.464062 4804.296875 896.026562 C 4830.234375 927.003125 4955.859375 891.417187 4932.1875 863.214062 Z M 4932.1875 863.214062 " transform="matrix(0.1,0,0,-0.1,0,200.13)"/>
<path style=" stroke:none;fill-rule:nonzero;fill:rgb(100%,100%,100%);fill-opacity:1;" d="M 447.765625 90.886719 C 434.191406 103.054688 410.445313 114.152344 392.882813 115.265625 C 375.316406 116.375 365.226563 103.371094 365.390625 90.320313 C 365.492188 82.230469 369.242188 75.511719 369.5625 78.027344 C 369.894531 80.550781 368.859375 83.03125 370.300781 90.808594 C 372.175781 100.828125 385.65625 106.527344 397.519531 103.332031 C 413.234375 99.132813 425.757813 90.59375 433.507813 84.433594 C 436.875 81.757813 451.359375 87.65625 447.765625 90.886719 "/>
<path style="fill:none;stroke-width:15;stroke-linecap:butt;stroke-linejoin:miter;stroke:rgb(100%,100%,100%);stroke-opacity:1;stroke-miterlimit:4;" d="M 4477.65625 1092.432813 C 4341.914063 970.753125 4104.453125 859.776562 3928.828125 848.64375 C 3753.164063 837.55 3652.265625 967.589062 3653.90625 1098.096875 C 3654.921875 1178.995313 3692.421875 1246.182813 3695.625 1221.026563 C 3698.945313 1195.792188 3688.59375 1170.9875 3703.007813 1093.214063 C 3721.757813 993.01875 3856.5625 936.026562 3975.195313 967.979687 C 4132.34375 1009.971875 4257.578125 1095.3625 4335.078125 1156.964063 C 4368.75 1183.721875 4513.59375 1124.7375 4477.65625 1092.432813 Z M 4477.65625 1092.432813 " transform="matrix(0.1,0,0,-0.1,0,200.13)"/>
<path style=" stroke:none;fill-rule:nonzero;fill:rgb(100%,100%,100%);fill-opacity:1;" d="M 67.171875 60.039063 C 60.285156 60.039063 55.941406 57.90625 54.382813 57.007813 C 53.398438 55.203125 52.335938 49.386719 52.171875 45.53125 C 52.582031 44.957031 53.808594 44.792969 54.136719 45.285156 C 55.367188 49.464844 58.726563 57.5 68.238281 57.5 C 75.121094 57.5 78.484375 52.992188 78.484375 48.074219 C 78.484375 44.46875 77.746094 40.449219 71.761719 36.597656 L 63.972656 31.515625 C 59.875 28.808594 55.121094 24.140625 55.121094 17.414063 C 55.121094 9.628906 61.1875 3.316406 71.84375 3.316406 C 74.382813 3.316406 77.335938 3.726563 79.464844 4.382813 C 80.53125 4.628906 81.679688 4.875 82.335938 4.875 C 83.074219 6.839844 83.8125 11.433594 83.8125 14.875 C 83.484375 15.367188 82.171875 15.613281 81.761719 15.121094 C 80.695313 11.183594 78.484375 5.859375 70.613281 5.859375 C 62.582031 5.859375 60.859375 11.183594 60.859375 14.957031 C 60.859375 19.714844 64.792969 23.074219 67.828125 25.039063 L 74.382813 29.136719 C 79.550781 32.335938 84.632813 37.089844 84.632813 44.878906 C 84.632813 53.894531 77.828125 60.039063 67.171875 60.039063 "/>
<path style="fill:none;stroke-width:5;stroke-linecap:butt;stroke-linejoin:miter;stroke:rgb(100%,100%,100%);stroke-opacity:1;stroke-miterlimit:4;" d="M 671.71875 1400.909375 C 602.851563 1400.909375 559.414063 1422.2375 543.828125 1431.221875 C 533.984375 1449.26875 523.359375 1507.432813 521.71875 1545.9875 C 525.820313 1551.729688 538.085938 1553.370313 541.367188 1548.448438 C 553.671875 1506.651563 587.265625 1426.3 682.382813 1426.3 C 751.210938 1426.3 784.84375 1471.378125 784.84375 1520.557813 C 784.84375 1556.6125 777.460938 1596.807813 717.617188 1635.323438 L 639.726563 1686.14375 C 598.75 1713.214063 551.210938 1759.89375 551.210938 1827.159375 C 551.210938 1905.010938 611.875 1968.135938 718.4375 1968.135938 C 743.828125 1968.135938 773.359375 1964.034375 794.648438 1957.471875 C 805.3125 1955.010938 816.796875 1952.55 823.359375 1952.55 C 830.742188 1932.901563 838.125 1886.964063 838.125 1852.55 C 834.84375 1847.628125 821.71875 1845.167188 817.617188 1850.089063 C 806.953125 1889.464063 784.84375 1942.70625 706.132813 1942.70625 C 625.820313 1942.70625 608.59375 1889.464063 608.59375 1851.729688 C 608.59375 1804.151563 647.929688 1770.557813 678.28125 1750.909375 L 743.828125 1709.932813 C 795.507813 1677.940625 846.328125 1630.401563 846.328125 1552.510938 C 846.328125 1462.354688 778.28125 1400.909375 671.71875 1400.909375 Z M 671.71875 1400.909375 " transform="matrix(0.1,0,0,-0.1,0,200.13)"/>
<path style=" stroke:none;fill-rule:nonzero;fill:rgb(100%,100%,100%);fill-opacity:1;" d="M 102.257813 56.1875 C 103.894531 56.1875 106.4375 54.960938 107.257813 54.140625 C 108.242188 53.15625 108.324219 52.011719 108.324219 50.285156 L 108.488281 45.449219 C 108.488281 44.550781 108.160156 44.386719 107.667969 44.386719 C 107.175781 44.386719 105.78125 44.714844 104.308594 45.203125 C 99.46875 46.84375 97.09375 48.074219 97.09375 51.269531 C 97.09375 52.664063 98.078125 56.1875 102.257813 56.1875 Z M 107.339844 41.761719 C 108.570313 41.351563 108.652344 40.613281 108.734375 39.382813 L 108.816406 35.613281 C 108.898438 32.582031 107.914063 28.484375 102.832031 28.484375 C 100.535156 28.484375 97.75 29.628906 97.585938 32.171875 C 97.503906 33.484375 97.421875 34.464844 96.765625 34.960938 C 95.535156 35.941406 93.320313 36.515625 92.09375 36.515625 C 91.355469 36.515625 90.945313 36.105469 90.945313 35.367188 C 90.945313 31.105469 100.210938 25.285156 106.191406 25.285156 C 112.09375 25.285156 114.964844 28.726563 114.71875 34.875 L 114.226563 49.140625 C 114.0625 52.910156 114.800781 56.269531 117.996094 56.269531 C 118.816406 56.269531 119.554688 56.023438 120.046875 55.777344 C 120.453125 55.53125 120.863281 55.203125 121.113281 55.203125 C 121.4375 55.203125 121.683594 55.695313 121.683594 56.269531 C 121.683594 56.683594 118.816406 59.875 114.800781 59.875 C 112.832031 59.875 110.863281 59.140625 109.472656 57.335938 C 109.144531 56.847656 108.652344 56.1875 108.160156 56.1875 C 107.585938 56.1875 106.601563 56.925781 104.964844 57.828125 C 103.160156 58.8125 101.355469 59.875 99.058594 59.875 C 96.683594 59.875 94.714844 59.222656 93.320313 57.992188 C 91.765625 56.597656 90.78125 54.550781 90.78125 52.253906 C 90.78125 49.054688 92.339844 47.171875 97.585938 45.285156 L 107.339844 41.761719 "/>
<path style="fill:none;stroke-width:2.5;stroke-linecap:butt;stroke-linejoin:miter;stroke:rgb(100%,100%,100%);stroke-opacity:1;stroke-miterlimit:4;" d="M 1022.578125 1439.425 C 1038.945313 1439.425 1064.375 1451.690625 1072.578125 1459.89375 C 1082.421875 1469.7375 1083.242188 1481.182813 1083.242188 1498.448438 L 1084.882813 1546.807813 C 1084.882813 1555.792188 1081.601563 1557.432813 1076.679688 1557.432813 C 1071.757813 1557.432813 1057.8125 1554.151563 1043.085938 1549.26875 C 994.6875 1532.8625 970.9375 1520.557813 970.9375 1488.604688 C 970.9375 1474.659375 980.78125 1439.425 1022.578125 1439.425 Z M 1073.398438 1583.682813 C 1085.703125 1587.784375 1086.523438 1595.167188 1087.34375 1607.471875 L 1088.164063 1645.167188 C 1088.984375 1675.479688 1079.140625 1716.45625 1028.320313 1716.45625 C 1005.351563 1716.45625 977.5 1705.010938 975.859375 1679.58125 C 975.039063 1666.45625 974.21875 1656.651563 967.65625 1651.690625 C 955.351563 1641.885938 933.203125 1636.14375 920.9375 1636.14375 C 913.554688 1636.14375 909.453125 1640.245313 909.453125 1647.628125 C 909.453125 1690.245313 1002.109375 1748.448438 1061.914063 1748.448438 C 1120.9375 1748.448438 1149.648438 1714.034375 1147.1875 1652.55 L 1142.265625 1509.89375 C 1140.625 1472.198438 1148.007813 1438.604688 1179.960938 1438.604688 C 1188.164063 1438.604688 1195.546875 1441.065625 1200.46875 1443.526563 C 1204.53125 1445.9875 1208.632813 1449.26875 1211.132813 1449.26875 C 1214.375 1449.26875 1216.835938 1444.346875 1216.835938 1438.604688 C 1216.835938 1434.464063 1188.164063 1402.55 1148.007813 1402.55 C 1128.320313 1402.55 1108.632813 1409.89375 1094.726563 1427.940625 C 1091.445313 1432.823438 1086.523438 1439.425 1081.601563 1439.425 C 1075.859375 1439.425 1066.015625 1432.042188 1049.648438 1423.01875 C 1031.601563 1413.175 1013.554688 1402.55 990.585938 1402.55 C 966.835938 1402.55 947.148438 1409.073438 933.203125 1421.378125 C 917.65625 1435.323438 907.8125 1455.792188 907.8125 1478.760938 C 907.8125 1510.753125 923.398438 1529.58125 975.859375 1548.448438 Z M 1073.398438 1583.682813 " transform="matrix(0.1,0,0,-0.1,0,200.13)"/>
<path style=" stroke:none;fill-rule:nonzero;fill:rgb(100%,100%,100%);fill-opacity:1;" d="M 134.308594 49.550781 C 134.308594 55.453125 134.472656 56.269531 137.421875 56.683594 L 139.390625 56.925781 C 139.964844 57.335938 139.800781 58.730469 139.226563 58.976563 C 136.519531 58.8125 134.144531 58.730469 131.273438 58.730469 C 128.324219 58.730469 125.863281 58.8125 123.40625 58.976563 C 122.832031 58.730469 122.667969 57.335938 123.242188 56.925781 L 125.128906 56.683594 C 128.160156 56.269531 128.242188 55.453125 128.242188 49.550781 L 128.242188 12.5 C 128.242188 7.660156 128.160156 7.171875 125.699219 5.695313 L 124.882813 5.203125 C 124.472656 4.957031 124.472656 3.808594 124.882813 3.5625 C 126.929688 2.90625 130.78125 1.679688 133.734375 0.121094 C 134.0625 0.121094 134.390625 0.285156 134.554688 0.613281 C 134.472656 3.070313 134.308594 7.171875 134.308594 10.777344 L 134.308594 49.550781 "/>
<path style="fill:none;stroke-width:2.5;stroke-linecap:butt;stroke-linejoin:miter;stroke:rgb(100%,100%,100%);stroke-opacity:1;stroke-miterlimit:4;" d="M 1343.085938 1505.792188 C 1343.085938 1446.76875 1344.726563 1438.604688 1374.21875 1434.464063 L 1393.90625 1432.042188 C 1399.648438 1427.940625 1398.007813 1413.995313 1392.265625 1411.534375 C 1365.195313 1413.175 1341.445313 1413.995313 1312.734375 1413.995313 C 1283.242188 1413.995313 1258.632813 1413.175 1234.0625 1411.534375 C 1228.320313 1413.995313 1226.679688 1427.940625 1232.421875 1432.042188 L 1251.289063 1434.464063 C 1281.601563 1438.604688 1282.421875 1446.76875 1282.421875 1505.792188 L 1282.421875 1876.3 C 1282.421875 1924.698438 1281.601563 1929.58125 1256.992188 1944.346875 L 1248.828125 1949.26875 C 1244.726563 1951.729688 1244.726563 1963.214063 1248.828125 1965.675 C 1269.296875 1972.2375 1307.8125 1984.503125 1337.34375 2000.089063 C 1340.625 2000.089063 1343.90625 1998.448438 1345.546875 1995.167188 C 1344.726563 1970.596875 1343.085938 1929.58125 1343.085938 1893.526563 Z M 1343.085938 1505.792188 " transform="matrix(0.1,0,0,-0.1,0,200.13)"/>
<path style=" stroke:none;fill-rule:nonzero;fill:rgb(100%,100%,100%);fill-opacity:1;" d="M 154.027344 29.875 C 152.636719 29.875 152.554688 30.121094 152.554688 31.84375 L 152.554688 47.171875 C 152.554688 51.925781 153.128906 56.269531 158.539063 56.269531 C 159.359375 56.269531 160.09375 56.105469 160.75 55.859375 C 161.488281 55.613281 162.554688 54.714844 162.800781 54.714844 C 163.453125 54.714844 163.785156 55.613281 163.617188 56.105469 C 162.144531 57.828125 159.195313 59.875 155.011719 59.875 C 147.964844 59.875 146.488281 55.941406 146.488281 51.023438 L 146.488281 32.253906 C 146.488281 30.039063 146.40625 29.875 144.765625 29.875 L 142.472656 29.875 C 141.980469 29.550781 141.898438 28.648438 142.226563 28.15625 C 144.601563 27.417969 146.652344 26.351563 147.472656 25.613281 C 148.535156 24.628906 150.09375 22.414063 150.914063 20.777344 C 151.324219 20.613281 152.308594 20.613281 152.636719 21.1875 L 152.636719 24.878906 C 152.636719 26.351563 152.71875 26.433594 154.109375 26.433594 L 163.210938 26.433594 C 164.195313 27.171875 164.03125 29.382813 163.292969 29.875 L 154.027344 29.875 "/>
<path style="fill:none;stroke-width:2.5;stroke-linecap:butt;stroke-linejoin:miter;stroke:rgb(100%,100%,100%);stroke-opacity:1;stroke-miterlimit:4;" d="M 1540.273438 1702.55 C 1526.367188 1702.55 1525.546875 1700.089063 1525.546875 1682.8625 L 1525.546875 1529.58125 C 1525.546875 1482.042188 1531.289063 1438.604688 1585.390625 1438.604688 C 1593.59375 1438.604688 1600.9375 1440.245313 1607.5 1442.70625 C 1614.882813 1445.167188 1625.546875 1454.151563 1628.007813 1454.151563 C 1634.53125 1454.151563 1637.851563 1445.167188 1636.171875 1440.245313 C 1621.445313 1423.01875 1591.953125 1402.55 1550.117188 1402.55 C 1479.648438 1402.55 1464.882813 1441.885938 1464.882813 1491.065625 L 1464.882813 1678.760938 C 1464.882813 1700.909375 1464.0625 1702.55 1447.65625 1702.55 L 1424.726563 1702.55 C 1419.804688 1705.792188 1418.984375 1714.815625 1422.265625 1719.7375 C 1446.015625 1727.120313 1466.523438 1737.784375 1474.726563 1745.167188 C 1485.351563 1755.010938 1500.9375 1777.159375 1509.140625 1793.526563 C 1513.242188 1795.167188 1523.085938 1795.167188 1526.367188 1789.425 L 1526.367188 1752.510938 C 1526.367188 1737.784375 1527.1875 1736.964063 1541.09375 1736.964063 L 1632.109375 1736.964063 C 1641.953125 1729.58125 1640.3125 1707.471875 1632.929688 1702.55 Z M 1540.273438 1702.55 " transform="matrix(0.1,0,0,-0.1,0,200.13)"/>
<path style=" stroke:none;fill-rule:nonzero;fill:rgb(100%,100%,100%);fill-opacity:1;" d="M 195.425781 16.921875 C 195.425781 8.320313 195.257813 7.007813 190.09375 6.597656 L 188.046875 6.429688 C 187.554688 6.101563 187.71875 4.628906 188.210938 4.382813 C 192.800781 4.546875 195.589844 4.628906 198.867188 4.628906 C 202.0625 4.628906 204.851563 4.546875 208.949219 4.382813 C 209.441406 4.628906 209.605469 6.101563 209.113281 6.429688 L 207.144531 6.597656 C 202.308594 7.007813 202.148438 8.320313 202.148438 16.921875 L 202.148438 45.449219 C 202.148438 50.613281 202.390625 52.746094 203.867188 54.304688 C 204.769531 55.203125 206.324219 56.1875 212.800781 56.1875 C 219.769531 56.1875 221.492188 55.859375 222.804688 55.125 C 224.441406 54.140625 226.574219 51.1875 228.214844 47.007813 C 228.703125 46.601563 230.261719 46.925781 230.261719 47.5 C 230.261719 48.402344 227.96875 56.761719 226.820313 58.976563 C 222.640625 58.8125 214.851563 58.730469 206.40625 58.730469 L 198.867188 58.730469 C 195.425781 58.730469 192.800781 58.8125 188.210938 58.976563 C 187.71875 58.730469 187.554688 57.417969 188.046875 56.925781 L 190.507813 56.683594 C 195.257813 56.1875 195.425781 55.039063 195.425781 46.433594 L 195.425781 16.921875 "/>
<path style="fill:none;stroke-width:1.5;stroke-linecap:butt;stroke-linejoin:miter;stroke:rgb(100%,100%,100%);stroke-opacity:1;stroke-miterlimit:4;" d="M 1954.257813 1832.08125 C 1954.257813 1918.096875 1952.578125 1931.221875 1900.9375 1935.323438 L 1880.46875 1937.003125 C 1875.546875 1940.284375 1877.1875 1955.010938 1882.109375 1957.471875 C 1928.007813 1955.83125 1955.898438 1955.010938 1988.671875 1955.010938 C 2020.625 1955.010938 2048.515625 1955.83125 2089.492188 1957.471875 C 2094.414063 1955.010938 2096.054688 1940.284375 2091.132813 1937.003125 L 2071.445313 1935.323438 C 2023.085938 1931.221875 2021.484375 1918.096875 2021.484375 1832.08125 L 2021.484375 1546.807813 C 2021.484375 1495.167188 2023.90625 1473.839063 2038.671875 1458.253125 C 2047.695313 1449.26875 2063.242188 1439.425 2128.007813 1439.425 C 2197.695313 1439.425 2214.921875 1442.70625 2228.046875 1450.05 C 2244.414063 1459.89375 2265.742188 1489.425 2282.148438 1531.221875 C 2287.03125 1535.284375 2302.617188 1532.042188 2302.617188 1526.3 C 2302.617188 1517.276563 2279.6875 1433.682813 2268.203125 1411.534375 C 2226.40625 1413.175 2148.515625 1413.995313 2064.0625 1413.995313 L 1988.671875 1413.995313 C 1954.257813 1413.995313 1928.007813 1413.175 1882.109375 1411.534375 C 1877.1875 1413.995313 1875.546875 1427.120313 1880.46875 1432.042188 L 1905.078125 1434.464063 C 1952.578125 1439.425 1954.257813 1450.909375 1954.257813 1536.964063 Z M 1954.257813 1832.08125 " transform="matrix(0.1,0,0,-0.1,0,200.13)"/>
<path style=" stroke:none;fill-rule:nonzero;fill:rgb(100%,100%,100%);fill-opacity:1;" d="M 244.605469 56.1875 C 246.246094 56.1875 248.785156 54.960938 249.605469 54.140625 C 250.589844 53.15625 250.671875 52.011719 250.671875 50.285156 L 250.835938 45.449219 C 250.835938 44.550781 250.507813 44.386719 250.019531 44.386719 C 249.523438 44.386719 248.132813 44.714844 246.65625 45.203125 C 241.820313 46.84375 239.441406 48.074219 239.441406 51.269531 C 239.441406 52.664063 240.425781 56.1875 244.605469 56.1875 Z M 249.691406 41.761719 C 250.921875 41.351563 251 40.613281 251.078125 39.382813 L 251.164063 35.613281 C 251.246094 32.582031 250.261719 28.484375 245.179688 28.484375 C 242.886719 28.484375 240.097656 29.628906 239.933594 32.171875 C 239.851563 33.484375 239.769531 34.464844 239.113281 34.960938 C 237.882813 35.941406 235.671875 36.515625 234.441406 36.515625 C 233.707031 36.515625 233.296875 36.105469 233.296875 35.367188 C 233.296875 31.105469 242.558594 25.285156 248.539063 25.285156 C 254.441406 25.285156 257.3125 28.726563 257.066406 34.875 L 256.574219 49.140625 C 256.410156 52.910156 257.148438 56.269531 260.34375 56.269531 C 261.164063 56.269531 261.902344 56.023438 262.394531 55.777344 C 262.804688 55.53125 263.214844 55.203125 263.457031 55.203125 C 263.785156 55.203125 264.035156 55.695313 264.035156 56.269531 C 264.035156 56.683594 261.164063 59.875 257.148438 59.875 C 255.179688 59.875 253.214844 59.140625 251.820313 57.335938 C 251.492188 56.847656 251 56.1875 250.507813 56.1875 C 249.933594 56.1875 248.949219 56.925781 247.3125 57.828125 C 245.507813 58.8125 243.707031 59.875 241.410156 59.875 C 239.03125 59.875 237.066406 59.222656 235.671875 57.992188 C 234.113281 56.597656 233.132813 54.550781 233.132813 52.253906 C 233.132813 49.054688 234.6875 47.171875 239.933594 45.285156 L 249.691406 41.761719 "/>
<path style="fill:none;stroke-width:2.5;stroke-linecap:butt;stroke-linejoin:miter;stroke:rgb(100%,100%,100%);stroke-opacity:1;stroke-miterlimit:4;" d="M 2446.054688 1439.425 C 2462.460938 1439.425 2487.851563 1451.690625 2496.054688 1459.89375 C 2505.898438 1469.7375 2506.71875 1481.182813 2506.71875 1498.448438 L 2508.359375 1546.807813 C 2508.359375 1555.792188 2505.078125 1557.432813 2500.195313 1557.432813 C 2495.234375 1557.432813 2481.328125 1554.151563 2466.5625 1549.26875 C 2418.203125 1532.8625 2394.414063 1520.557813 2394.414063 1488.604688 C 2394.414063 1474.659375 2404.257813 1439.425 2446.054688 1439.425 Z M 2496.914063 1583.682813 C 2509.21875 1587.784375 2510 1595.167188 2510.78125 1607.471875 L 2511.640625 1645.167188 C 2512.460938 1675.479688 2502.617188 1716.45625 2451.796875 1716.45625 C 2428.867188 1716.45625 2400.976563 1705.010938 2399.335938 1679.58125 C 2398.515625 1666.45625 2397.695313 1656.651563 2391.132813 1651.690625 C 2378.828125 1641.885938 2356.71875 1636.14375 2344.414063 1636.14375 C 2337.070313 1636.14375 2332.96875 1640.245313 2332.96875 1647.628125 C 2332.96875 1690.245313 2425.585938 1748.448438 2485.390625 1748.448438 C 2544.414063 1748.448438 2573.125 1714.034375 2570.664063 1652.55 L 2565.742188 1509.89375 C 2564.101563 1472.198438 2571.484375 1438.604688 2603.4375 1438.604688 C 2611.640625 1438.604688 2619.023438 1441.065625 2623.945313 1443.526563 C 2628.046875 1445.9875 2632.148438 1449.26875 2634.570313 1449.26875 C 2637.851563 1449.26875 2640.351563 1444.346875 2640.351563 1438.604688 C 2640.351563 1434.464063 2611.640625 1402.55 2571.484375 1402.55 C 2551.796875 1402.55 2532.148438 1409.89375 2518.203125 1427.940625 C 2514.921875 1432.823438 2510 1439.425 2505.078125 1439.425 C 2499.335938 1439.425 2489.492188 1432.042188 2473.125 1423.01875 C 2455.078125 1413.175 2437.070313 1402.55 2414.101563 1402.55 C 2390.3125 1402.55 2370.664063 1409.073438 2356.71875 1421.378125 C 2341.132813 1435.323438 2331.328125 1455.792188 2331.328125 1478.760938 C 2331.328125 1510.753125 2346.875 1529.58125 2399.335938 1548.448438 Z M 2496.914063 1583.682813 " transform="matrix(0.1,0,0,-0.1,0,200.13)"/>
<path style=" stroke:none;fill-rule:nonzero;fill:rgb(100%,100%,100%);fill-opacity:1;" d="M 270.589844 12.5 C 270.589844 7.660156 270.507813 7.171875 268.050781 5.695313 L 267.230469 5.203125 C 266.820313 4.957031 266.820313 3.808594 267.230469 3.5625 C 269.277344 2.90625 273.132813 1.679688 276.082031 0.121094 C 276.410156 0.121094 276.738281 0.285156 276.902344 0.613281 C 276.820313 3.070313 276.65625 7.171875 276.65625 10.777344 L 276.65625 38.894531 C 276.65625 39.957031 276.738281 40.121094 278.132813 40.121094 C 279.933594 40.121094 281.492188 39.21875 283.707031 36.925781 L 287.066406 33.320313 C 289.363281 30.859375 289.933594 29.960938 289.933594 29.550781 C 289.933594 29.136719 289.527344 28.890625 288.132813 28.726563 L 286.164063 28.484375 C 285.425781 28.234375 285.425781 26.679688 286.164063 26.433594 L 288.050781 26.433594 C 291.65625 26.433594 296.496094 26.265625 301.082031 25.777344 C 301.65625 26.023438 301.738281 27.417969 301.246094 27.824219 L 298.625 28.320313 C 296.984375 28.648438 295.59375 29.464844 293.460938 31.1875 C 290.261719 33.730469 287.476563 36.679688 286.003906 38.070313 C 285.019531 38.976563 284.9375 39.382813 285.425781 40.039063 C 286.820313 41.925781 288.132813 43.480469 290.921875 46.601563 C 294.117188 50.203125 296.984375 53.402344 298.625 54.960938 C 299.773438 56.023438 301.410156 56.515625 302.886719 56.761719 L 304.035156 56.925781 C 304.605469 57.335938 304.527344 58.730469 303.871094 58.976563 C 301.492188 58.8125 298.707031 58.730469 296.085938 58.730469 C 292.804688 58.730469 289.933594 58.8125 287.558594 58.976563 C 286.902344 58.648438 286.820313 57.253906 287.394531 56.925781 L 288.867188 56.683594 C 290.097656 56.515625 290.921875 56.351563 290.921875 55.859375 C 290.921875 55.367188 290.589844 54.792969 289.527344 53.566406 L 280.753906 43.402344 C 280.015625 42.582031 279.113281 42.253906 278.214844 42.253906 C 276.738281 42.253906 276.65625 42.5 276.65625 45.039063 L 276.65625 49.550781 C 276.65625 55.453125 276.820313 56.269531 279.773438 56.683594 L 281.738281 56.925781 C 282.3125 57.335938 282.148438 58.730469 281.574219 58.976563 C 278.871094 58.8125 276.496094 58.730469 273.625 58.730469 C 270.671875 58.730469 268.214844 58.8125 265.753906 58.976563 C 265.179688 58.730469 265.015625 57.335938 265.671875 56.925781 L 267.476563 56.683594 C 270.507813 56.269531 270.589844 55.453125 270.589844 49.550781 L 270.589844 12.5 "/>
<path style="fill:none;stroke-width:2.5;stroke-linecap:butt;stroke-linejoin:miter;stroke:rgb(100%,100%,100%);stroke-opacity:1;stroke-miterlimit:4;" d="M 2705.898438 1876.3 C 2705.898438 1924.698438 2705.078125 1929.58125 2680.507813 1944.346875 L 2672.304688 1949.26875 C 2668.203125 1951.729688 2668.203125 1963.214063 2672.304688 1965.675 C 2692.773438 1972.2375 2731.328125 1984.503125 2760.820313 2000.089063 C 2764.101563 2000.089063 2767.382813 1998.448438 2769.023438 1995.167188 C 2768.203125 1970.596875 2766.5625 1929.58125 2766.5625 1893.526563 L 2766.5625 1612.354688 C 2766.5625 1601.729688 2767.382813 1600.089063 2781.328125 1600.089063 C 2799.335938 1600.089063 2814.921875 1609.1125 2837.070313 1632.042188 L 2870.664063 1668.096875 C 2893.632813 1692.70625 2899.335938 1701.690625 2899.335938 1705.792188 C 2899.335938 1709.932813 2895.273438 1712.39375 2881.328125 1714.034375 L 2861.640625 1716.45625 C 2854.257813 1718.95625 2854.257813 1734.503125 2861.640625 1736.964063 L 2880.507813 1736.964063 C 2916.5625 1736.964063 2964.960938 1738.64375 3010.820313 1743.526563 C 3016.5625 1741.065625 3017.382813 1727.120313 3012.460938 1723.057813 L 2986.25 1718.096875 C 2969.84375 1714.815625 2955.9375 1706.651563 2934.609375 1689.425 C 2902.617188 1663.995313 2874.765625 1634.503125 2860.039063 1620.596875 C 2850.195313 1611.534375 2849.375 1607.471875 2854.257813 1600.909375 C 2868.203125 1582.042188 2881.328125 1566.495313 2909.21875 1535.284375 C 2941.171875 1499.26875 2969.84375 1467.276563 2986.25 1451.690625 C 2997.734375 1441.065625 3014.101563 1436.14375 3028.867188 1433.682813 L 3040.351563 1432.042188 C 3046.054688 1427.940625 3045.273438 1413.995313 3038.710938 1411.534375 C 3014.921875 1413.175 2987.070313 1413.995313 2960.859375 1413.995313 C 2928.046875 1413.995313 2899.335938 1413.175 2875.585938 1411.534375 C 2869.023438 1414.815625 2868.203125 1428.760938 2873.945313 1432.042188 L 2888.671875 1434.464063 C 2900.976563 1436.14375 2909.21875 1437.784375 2909.21875 1442.70625 C 2909.21875 1447.628125 2905.898438 1453.370313 2895.273438 1465.635938 L 2807.539063 1567.276563 C 2800.15625 1575.479688 2791.132813 1578.760938 2782.148438 1578.760938 C 2767.382813 1578.760938 2766.5625 1576.3 2766.5625 1550.909375 L 2766.5625 1505.792188 C 2766.5625 1446.76875 2768.203125 1438.604688 2797.734375 1434.464063 L 2817.382813 1432.042188 C 2823.125 1427.940625 2821.484375 1413.995313 2815.742188 1411.534375 C 2788.710938 1413.175 2764.960938 1413.995313 2736.25 1413.995313 C 2706.71875 1413.995313 2682.148438 1413.175 2657.539063 1411.534375 C 2651.796875 1413.995313 2650.15625 1427.940625 2656.71875 1432.042188 L 2674.765625 1434.464063 C 2705.078125 1438.604688 2705.898438 1446.76875 2705.898438 1505.792188 Z M 2705.898438 1876.3 " transform="matrix(0.1,0,0,-0.1,0,200.13)"/>
<path style=" stroke:none;fill-rule:nonzero;fill:rgb(100%,100%,100%);fill-opacity:1;" d="M 318.625 35.289063 C 324.691406 35.289063 326.496094 34.960938 327.148438 34.464844 C 327.398438 34.304688 327.640625 33.976563 327.640625 32.90625 C 327.640625 30.613281 326.082031 27.746094 321.328125 27.746094 C 316.496094 27.746094 312.3125 32.171875 312.230469 34.875 C 312.230469 35.039063 312.230469 35.289063 312.804688 35.289063 Z M 313.542969 37.742188 C 311.410156 37.742188 311.328125 37.90625 311.328125 39.957031 C 311.328125 48.238281 316.164063 55.289063 324.9375 55.289063 C 327.640625 55.289063 329.9375 54.464844 332.476563 51.269531 C 333.300781 51.023438 333.871094 51.515625 333.953125 52.253906 C 331.246094 57.828125 325.347656 59.875 321.085938 59.875 C 315.757813 59.875 311.574219 57.582031 309.195313 54.464844 C 306.738281 51.269531 305.757813 47.417969 305.757813 43.808594 C 305.757813 33.730469 312.394531 25.285156 322.230469 25.285156 C 329.28125 25.285156 333.871094 30.121094 333.871094 35.039063 C 333.871094 36.1875 333.707031 36.84375 333.542969 37.171875 C 333.300781 37.664063 332.148438 37.742188 328.707031 37.742188 L 313.542969 37.742188 "/>
<path style="fill:none;stroke-width:2.5;stroke-linecap:butt;stroke-linejoin:miter;stroke:rgb(100%,100%,100%);stroke-opacity:1;stroke-miterlimit:4;" d="M 3186.25 1648.409375 C 3246.914063 1648.409375 3264.960938 1651.690625 3271.484375 1656.651563 C 3273.984375 1658.253125 3276.40625 1661.534375 3276.40625 1672.2375 C 3276.40625 1695.167188 3260.820313 1723.839063 3213.28125 1723.839063 C 3164.960938 1723.839063 3123.125 1679.58125 3122.304688 1652.55 C 3122.304688 1650.909375 3122.304688 1648.409375 3128.046875 1648.409375 Z M 3135.429688 1623.878125 C 3114.101563 1623.878125 3113.28125 1622.2375 3113.28125 1601.729688 C 3113.28125 1518.917188 3161.640625 1448.409375 3249.375 1448.409375 C 3276.40625 1448.409375 3299.375 1456.651563 3324.765625 1488.604688 C 3333.007813 1491.065625 3338.710938 1486.14375 3339.53125 1478.760938 C 3312.460938 1423.01875 3253.476563 1402.55 3210.859375 1402.55 C 3157.578125 1402.55 3115.742188 1425.479688 3091.953125 1456.651563 C 3067.382813 1488.604688 3057.578125 1527.120313 3057.578125 1563.214063 C 3057.578125 1663.995313 3123.945313 1748.448438 3222.304688 1748.448438 C 3292.8125 1748.448438 3338.710938 1700.089063 3338.710938 1650.909375 C 3338.710938 1639.425 3337.070313 1632.8625 3335.429688 1629.58125 C 3333.007813 1624.659375 3321.484375 1623.878125 3287.070313 1623.878125 Z M 3135.429688 1623.878125 " transform="matrix(0.1,0,0,-0.1,0,200.13)"/>
<path style=" stroke:none;fill-rule:nonzero;fill:rgb(100%,100%,100%);fill-opacity:1;" d="M 9.714844 68.214844 C 15.171875 63.957031 22.121094 61.863281 29.890625 61.863281 C 33.925781 61.863281 39.605469 62.683594 43.117188 63.65625 C 44.015625 63.878906 44.539063 64.027344 45.210938 63.957031 C 45.285156 65.671875 45.660156 70.382813 46.257813 74.9375 C 45.882813 75.464844 44.761719 75.535156 44.238281 75.089844 C 43.117188 70.007813 39.753906 64.179688 28.921875 64.179688 C 17.488281 64.179688 7.773438 71.429688 7.773438 86.894531 C 7.773438 102.589844 17.710938 111.257813 29.96875 111.257813 C 39.605469 111.257813 43.863281 104.980469 45.582031 100.570313 C 46.105469 100.195313 47.226563 100.347656 47.527344 100.867188 C 47.003906 104.753906 45.0625 109.6875 43.941406 111.109375 C 43.042969 111.257813 42.144531 111.554688 41.324219 111.855469 C 39.679688 112.453125 34.300781 113.574219 29.519531 113.574219 C 22.792969 113.574219 16.367188 112.226563 10.910156 108.566406 C 4.933594 104.457031 0.300781 97.65625 0.300781 88.015625 C 0.300781 79.722656 4.035156 72.625 9.714844 68.214844 "/>
<path style="fill:none;stroke-width:6;stroke-linecap:butt;stroke-linejoin:miter;stroke:rgb(100%,100%,100%);stroke-opacity:1;stroke-miterlimit:10;" d="M 97.148438 1319.151563 C 151.71875 1361.729688 221.210938 1382.667188 298.90625 1382.667188 C 339.257813 1382.667188 396.054688 1374.464063 431.171875 1364.7375 C 440.15625 1362.510938 445.390625 1361.026563 452.109375 1361.729688 C 452.851563 1344.58125 456.601563 1297.471875 462.578125 1251.925 C 458.828125 1246.651563 447.617188 1245.948438 442.382813 1250.401563 C 431.171875 1301.221875 397.539063 1359.503125 289.21875 1359.503125 C 174.882813 1359.503125 77.734375 1287.003125 77.734375 1132.354688 C 77.734375 975.401562 177.109375 888.721875 299.6875 888.721875 C 396.054688 888.721875 438.632813 951.495312 455.820313 995.596875 C 461.054688 999.346875 472.265625 997.823437 475.273438 992.628125 C 470.039063 953.760937 450.625 904.425 439.414063 890.20625 C 430.429688 888.721875 421.445313 885.753125 413.242188 882.745312 C 396.796875 876.76875 343.007813 865.557812 295.195313 865.557812 C 227.929688 865.557812 163.671875 879.034375 109.101563 915.635937 C 49.335938 956.729687 3.007813 1024.7375 3.007813 1121.14375 C 3.007813 1204.073438 40.351563 1275.05 97.148438 1319.151563 Z M 97.148438 1319.151563 " transform="matrix(0.1,0,0,-0.1,0,200.13)"/>
<path style=" stroke:none;fill-rule:nonzero;fill:rgb(100%,100%,100%);fill-opacity:1;" d="M 66.65625 84.132813 C 61.726563 84.132813 58.0625 88.839844 58.0625 97.058594 C 58.0625 103.855469 61.128906 111.179688 67.703125 111.179688 C 74.277344 111.179688 76.296875 104.304688 76.296875 98.554688 C 76.296875 92.199219 73.753906 84.132813 66.65625 84.132813 Z M 82.722656 97.359375 C 82.722656 106.699219 76.296875 113.421875 66.957031 113.421875 C 58.363281 113.421875 51.636719 107.371094 51.636719 98.027344 C 51.636719 88.613281 58.734375 81.890625 67.554688 81.890625 C 75.921875 81.890625 82.722656 88.167969 82.722656 97.359375 "/>
<path style="fill:none;stroke-width:2.5;stroke-linecap:butt;stroke-linejoin:miter;stroke:rgb(100%,100%,100%);stroke-opacity:1;stroke-miterlimit:10;" d="M 666.5625 1159.971875 C 617.265625 1159.971875 580.625 1112.901563 580.625 1030.714063 C 580.625 962.745312 611.289063 889.503125 677.03125 889.503125 C 742.773438 889.503125 762.96875 958.253125 762.96875 1015.753125 C 762.96875 1079.307813 737.539063 1159.971875 666.5625 1159.971875 Z M 827.226563 1027.70625 C 827.226563 934.307812 762.96875 867.08125 669.570313 867.08125 C 583.632813 867.08125 516.367188 927.589062 516.367188 1021.026563 C 516.367188 1115.167188 587.34375 1182.39375 675.546875 1182.39375 C 759.21875 1182.39375 827.226563 1119.620313 827.226563 1027.70625 Z M 827.226563 1027.70625 " transform="matrix(0.1,0,0,-0.1,0,200.13)"/>
<path style=" stroke:none;fill-rule:nonzero;fill:rgb(100%,100%,100%);fill-opacity:1;" d="M 130.265625 93.171875 C 130.265625 88.089844 128.023438 85.476563 123.316406 85.476563 C 120.476563 85.476563 118.160156 86.746094 117.113281 88.089844 C 116.21875 89.214844 115.992188 89.960938 115.992188 92.574219 L 115.992188 104.007813 C 115.992188 109.390625 116.144531 110.136719 118.832031 110.507813 L 120.402344 110.730469 C 120.925781 111.109375 120.777344 112.375 120.253906 112.601563 C 118.011719 112.453125 115.84375 112.375 113.226563 112.375 C 110.539063 112.375 108.519531 112.453125 106.429688 112.601563 C 105.902344 112.375 105.757813 111.109375 106.277344 110.730469 L 107.621094 110.507813 C 110.390625 110.0625 110.464844 109.390625 110.464844 104.007813 L 110.464844 93.171875 C 110.464844 88.167969 108.222656 85.476563 103.589844 85.476563 C 100.523438 85.476563 98.433594 86.820313 97.3125 88.167969 C 96.5625 89.0625 96.1875 90.035156 96.1875 92.425781 L 96.1875 104.007813 C 96.1875 109.390625 96.339844 110.0625 99.03125 110.507813 L 100.375 110.730469 C 100.898438 111.109375 100.75 112.375 100.226563 112.601563 C 98.207031 112.453125 96.039063 112.375 93.425781 112.375 C 90.734375 112.375 88.496094 112.453125 86.175781 112.601563 C 85.65625 112.375 85.503906 111.109375 86.027344 110.730469 L 87.820313 110.507813 C 90.585938 110.136719 90.660156 109.390625 90.660156 104.007813 L 90.660156 90.929688 C 90.660156 88.015625 90.660156 87.644531 88.644531 86.296875 L 87.96875 85.851563 C 87.671875 85.550781 87.671875 84.730469 88.046875 84.503906 C 89.765625 83.90625 94.023438 81.964844 95.515625 80.84375 C 95.816406 80.84375 96.1875 80.992188 96.339844 81.363281 C 96.1875 83.085938 96.1875 84.207031 96.1875 84.878906 C 96.1875 85.328125 96.488281 85.699219 97.011719 85.699219 C 99.851563 83.683594 103.363281 81.890625 106.949219 81.890625 C 110.6875 81.890625 112.777344 83.234375 114.871094 86.296875 C 115.546875 86.445313 116.066406 86.148438 116.738281 85.699219 C 119.730469 83.605469 123.390625 81.890625 126.902344 81.890625 C 132.882813 81.890625 135.796875 86 135.796875 91.15625 L 135.796875 104.007813 C 135.796875 109.390625 135.945313 110.136719 138.632813 110.507813 L 140.425781 110.730469 C 140.949219 111.109375 140.800781 112.375 140.277344 112.601563 C 137.8125 112.453125 135.644531 112.375 133.03125 112.375 C 130.339844 112.375 128.320313 112.453125 126.230469 112.601563 C 125.707031 112.375 125.558594 111.109375 126.082031 110.730469 L 127.425781 110.507813 C 130.191406 110.0625 130.265625 109.390625 130.265625 104.007813 L 130.265625 93.171875 "/>
<path style="fill:none;stroke-width:2.5;stroke-linecap:butt;stroke-linejoin:miter;stroke:rgb(100%,100%,100%);stroke-opacity:1;stroke-miterlimit:10;" d="M 1302.65625 1069.58125 C 1302.65625 1120.401563 1280.234375 1146.534375 1233.164063 1146.534375 C 1204.765625 1146.534375 1181.601563 1133.839063 1171.132813 1120.401563 C 1162.1875 1109.151563 1159.921875 1101.690625 1159.921875 1075.557813 L 1159.921875 961.221875 C 1159.921875 907.39375 1161.445313 899.932812 1188.320313 896.221875 L 1204.023438 893.995312 C 1209.257813 890.20625 1207.773438 877.55 1202.539063 875.284375 C 1180.117188 876.76875 1158.4375 877.55 1132.265625 877.55 C 1105.390625 877.55 1085.195313 876.76875 1064.296875 875.284375 C 1059.023438 877.55 1057.578125 890.20625 1062.773438 893.995312 L 1076.210938 896.221875 C 1103.90625 900.675 1104.648438 907.39375 1104.648438 961.221875 L 1104.648438 1069.58125 C 1104.648438 1119.620313 1082.226563 1146.534375 1035.898438 1146.534375 C 1005.234375 1146.534375 984.335938 1133.096875 973.125 1119.620313 C 965.625 1110.675 961.875 1100.948438 961.875 1077.042188 L 961.875 961.221875 C 961.875 907.39375 963.398438 900.675 990.3125 896.221875 L 1003.75 893.995312 C 1008.984375 890.20625 1007.5 877.55 1002.265625 875.284375 C 982.070313 876.76875 960.390625 877.55 934.257813 877.55 C 907.34375 877.55 884.960938 876.76875 861.757813 875.284375 C 856.5625 877.55 855.039063 890.20625 860.273438 893.995312 L 878.203125 896.221875 C 905.859375 899.932812 906.601563 907.39375 906.601563 961.221875 L 906.601563 1092.003125 C 906.601563 1121.14375 906.601563 1124.854688 886.445313 1138.33125 L 879.6875 1142.784375 C 876.71875 1145.792188 876.71875 1153.995313 880.46875 1156.260938 C 897.65625 1162.2375 940.234375 1181.651563 955.15625 1192.8625 C 958.164063 1192.8625 961.875 1191.378125 963.398438 1187.667188 C 961.875 1170.440625 961.875 1159.229688 961.875 1152.510938 C 961.875 1148.01875 964.882813 1144.307813 970.117188 1144.307813 C 998.515625 1164.464063 1033.632813 1182.39375 1069.492188 1182.39375 C 1106.875 1182.39375 1127.773438 1168.95625 1148.710938 1138.33125 C 1155.46875 1136.846875 1160.664063 1139.815625 1167.382813 1144.307813 C 1197.304688 1165.245313 1233.90625 1182.39375 1269.023438 1182.39375 C 1328.828125 1182.39375 1357.96875 1141.3 1357.96875 1089.7375 L 1357.96875 961.221875 C 1357.96875 907.39375 1359.453125 899.932812 1386.328125 896.221875 L 1404.257813 893.995312 C 1409.492188 890.20625 1408.007813 877.55 1402.773438 875.284375 C 1378.125 876.76875 1356.445313 877.55 1330.3125 877.55 C 1303.398438 877.55 1283.203125 876.76875 1262.304688 875.284375 C 1257.070313 877.55 1255.585938 890.20625 1260.820313 893.995312 L 1274.257813 896.221875 C 1301.914063 900.675 1302.65625 907.39375 1302.65625 961.221875 Z M 1302.65625 1069.58125 " transform="matrix(0.1,0,0,-0.1,0,200.13)"/>
<path style=" stroke:none;fill-rule:nonzero;fill:rgb(100%,100%,100%);fill-opacity:1;" d="M 189.074219 93.171875 C 189.074219 88.089844 186.832031 85.476563 182.121094 85.476563 C 179.285156 85.476563 176.96875 86.746094 175.921875 88.089844 C 175.027344 89.214844 174.800781 89.960938 174.800781 92.574219 L 174.800781 104.007813 C 174.800781 109.390625 174.949219 110.136719 177.640625 110.507813 L 179.210938 110.730469 C 179.734375 111.109375 179.582031 112.375 179.058594 112.601563 C 176.820313 112.453125 174.652344 112.375 172.035156 112.375 C 169.347656 112.375 167.328125 112.453125 165.234375 112.601563 C 164.714844 112.375 164.5625 111.109375 165.085938 110.730469 L 166.433594 110.507813 C 169.195313 110.0625 169.273438 109.390625 169.273438 104.007813 L 169.273438 93.171875 C 169.273438 88.167969 167.027344 85.476563 162.398438 85.476563 C 159.332031 85.476563 157.242188 86.820313 156.117188 88.167969 C 155.371094 89.0625 155 90.035156 155 92.425781 L 155 104.007813 C 155 109.390625 155.148438 110.0625 157.839844 110.507813 L 159.183594 110.730469 C 159.707031 111.109375 159.558594 112.375 159.035156 112.601563 C 157.015625 112.453125 154.847656 112.375 152.234375 112.375 C 149.542969 112.375 147.300781 112.453125 144.984375 112.601563 C 144.460938 112.375 144.3125 111.109375 144.835938 110.730469 L 146.628906 110.507813 C 149.394531 110.136719 149.46875 109.390625 149.46875 104.007813 L 149.46875 90.929688 C 149.46875 88.015625 149.46875 87.644531 147.449219 86.296875 L 146.777344 85.851563 C 146.480469 85.550781 146.480469 84.730469 146.851563 84.503906 C 148.570313 83.90625 152.832031 81.964844 154.324219 80.84375 C 154.625 80.84375 155 80.992188 155.148438 81.363281 C 155 83.085938 155 84.207031 155 84.878906 C 155 85.328125 155.296875 85.699219 155.820313 85.699219 C 158.660156 83.683594 162.171875 81.890625 165.761719 81.890625 C 169.496094 81.890625 171.589844 83.234375 173.679688 86.296875 C 174.351563 86.445313 174.875 86.148438 175.546875 85.699219 C 178.535156 83.605469 182.199219 81.890625 185.710938 81.890625 C 191.6875 81.890625 194.601563 86 194.601563 91.15625 L 194.601563 104.007813 C 194.601563 109.390625 194.753906 110.136719 197.441406 110.507813 L 199.234375 110.730469 C 199.757813 111.109375 199.609375 112.375 199.089844 112.601563 C 196.621094 112.453125 194.453125 112.375 191.839844 112.375 C 189.148438 112.375 187.128906 112.453125 185.039063 112.601563 C 184.515625 112.375 184.367188 111.109375 184.890625 110.730469 L 186.234375 110.507813 C 189 110.0625 189.074219 109.390625 189.074219 104.007813 L 189.074219 93.171875 "/>
<path style="fill:none;stroke-width:2.5;stroke-linecap:butt;stroke-linejoin:miter;stroke:rgb(100%,100%,100%);stroke-opacity:1;stroke-miterlimit:10;" d="M 1890.742188 1069.58125 C 1890.742188 1120.401563 1868.320313 1146.534375 1821.210938 1146.534375 C 1792.851563 1146.534375 1769.6875 1133.839063 1759.21875 1120.401563 C 1750.273438 1109.151563 1748.007813 1101.690625 1748.007813 1075.557813 L 1748.007813 961.221875 C 1748.007813 907.39375 1749.492188 899.932812 1776.40625 896.221875 L 1792.109375 893.995312 C 1797.34375 890.20625 1795.820313 877.55 1790.585938 875.284375 C 1768.203125 876.76875 1746.523438 877.55 1720.351563 877.55 C 1693.476563 877.55 1673.28125 876.76875 1652.34375 875.284375 C 1647.148438 877.55 1645.625 890.20625 1650.859375 893.995312 L 1664.335938 896.221875 C 1691.953125 900.675 1692.734375 907.39375 1692.734375 961.221875 L 1692.734375 1069.58125 C 1692.734375 1119.620313 1670.273438 1146.534375 1623.984375 1146.534375 C 1593.320313 1146.534375 1572.421875 1133.096875 1561.171875 1119.620313 C 1553.710938 1110.675 1550 1100.948438 1550 1077.042188 L 1550 961.221875 C 1550 907.39375 1551.484375 900.675 1578.398438 896.221875 L 1591.835938 893.995312 C 1597.070313 890.20625 1595.585938 877.55 1590.351563 875.284375 C 1570.15625 876.76875 1548.476563 877.55 1522.34375 877.55 C 1495.429688 877.55 1473.007813 876.76875 1449.84375 875.284375 C 1444.609375 877.55 1443.125 890.20625 1448.359375 893.995312 L 1466.289063 896.221875 C 1493.945313 899.932812 1494.6875 907.39375 1494.6875 961.221875 L 1494.6875 1092.003125 C 1494.6875 1121.14375 1494.6875 1124.854688 1474.492188 1138.33125 L 1467.773438 1142.784375 C 1464.804688 1145.792188 1464.804688 1153.995313 1468.515625 1156.260938 C 1485.703125 1162.2375 1528.320313 1181.651563 1543.242188 1192.8625 C 1546.25 1192.8625 1550 1191.378125 1551.484375 1187.667188 C 1550 1170.440625 1550 1159.229688 1550 1152.510938 C 1550 1148.01875 1552.96875 1144.307813 1558.203125 1144.307813 C 1586.601563 1164.464063 1621.71875 1182.39375 1657.617188 1182.39375 C 1694.960938 1182.39375 1715.898438 1168.95625 1736.796875 1138.33125 C 1743.515625 1136.846875 1748.75 1139.815625 1755.46875 1144.307813 C 1785.351563 1165.245313 1821.992188 1182.39375 1857.109375 1182.39375 C 1916.875 1182.39375 1946.015625 1141.3 1946.015625 1089.7375 L 1946.015625 961.221875 C 1946.015625 907.39375 1947.539063 899.932812 1974.414063 896.221875 L 1992.34375 893.995312 C 1997.578125 890.20625 1996.09375 877.55 1990.898438 875.284375 C 1966.210938 876.76875 1944.53125 877.55 1918.398438 877.55 C 1891.484375 877.55 1871.289063 876.76875 1850.390625 875.284375 C 1845.15625 877.55 1843.671875 890.20625 1848.90625 893.995312 L 1862.34375 896.221875 C 1890 900.675 1890.742188 907.39375 1890.742188 961.221875 Z M 1890.742188 1069.58125 " transform="matrix(0.1,0,0,-0.1,0,200.13)"/>
<path style=" stroke:none;fill-rule:nonzero;fill:rgb(100%,100%,100%);fill-opacity:1;" d="M 210.835938 101.394531 C 210.835938 106.550781 212.105469 109.984375 217.785156 109.984375 C 219.804688 109.984375 222.195313 109.164063 223.835938 107.742188 C 224.808594 106.847656 225.332031 105.726563 225.332031 103.410156 L 225.332031 91.15625 C 225.332031 86.296875 224.808594 86.148438 222.566406 85.25 L 221.59375 84.878906 C 221.070313 84.578125 221.070313 83.535156 221.667969 83.234375 C 224.65625 83.160156 228.769531 82.636719 230.410156 81.890625 C 230.785156 81.964844 231.011719 82.113281 231.085938 82.410156 C 230.9375 83.835938 230.863281 86.148438 230.863281 88.914063 L 230.863281 101.46875 C 230.863281 107.371094 231.085938 109.613281 233.179688 109.613281 C 234.074219 109.613281 235.046875 109.460938 236.09375 109.238281 C 236.539063 109.613281 236.613281 111.109375 236.019531 111.40625 C 233.101563 112.003906 228.769531 112.75 226.230469 114.171875 C 225.855469 114.171875 225.480469 113.945313 225.332031 113.648438 L 225.332031 110.582031 C 225.332031 109.910156 225.109375 109.535156 224.65625 109.535156 C 222.417969 110.957031 218.757813 113.421875 214.347656 113.421875 C 207.769531 113.421875 205.304688 110.136719 205.304688 104.082031 L 205.304688 91.605469 C 205.304688 86.894531 205.304688 86.226563 203.0625 85.25 L 202.167969 84.878906 C 201.71875 84.503906 201.792969 83.457031 202.316406 83.234375 C 205.753906 83.160156 208.667969 82.488281 210.3125 81.890625 C 210.761719 81.964844 210.984375 82.113281 211.058594 82.410156 C 210.910156 83.683594 210.835938 85.25 210.835938 88.914063 L 210.835938 101.394531 "/>
<path style="fill:none;stroke-width:2.5;stroke-linecap:butt;stroke-linejoin:miter;stroke:rgb(100%,100%,100%);stroke-opacity:1;stroke-miterlimit:10;" d="M 2108.359375 987.354687 C 2108.359375 935.792187 2121.054688 901.45625 2177.851563 901.45625 C 2198.046875 901.45625 2221.953125 909.659375 2238.359375 923.878125 C 2248.085938 932.823437 2253.320313 944.034375 2253.320313 967.198437 L 2253.320313 1089.7375 C 2253.320313 1138.33125 2248.085938 1139.815625 2225.664063 1148.8 L 2215.9375 1152.510938 C 2210.703125 1155.51875 2210.703125 1165.948438 2216.679688 1168.95625 C 2246.5625 1169.698438 2287.695313 1174.932813 2304.101563 1182.39375 C 2307.851563 1181.651563 2310.117188 1180.167188 2310.859375 1177.198438 C 2309.375 1162.940625 2308.632813 1139.815625 2308.632813 1112.159375 L 2308.632813 986.6125 C 2308.632813 927.589062 2310.859375 905.167187 2331.796875 905.167187 C 2340.742188 905.167187 2350.46875 906.690625 2360.9375 908.917187 C 2365.390625 905.167187 2366.132813 890.20625 2360.195313 887.2375 C 2331.015625 881.260937 2287.695313 873.8 2262.304688 859.58125 C 2258.554688 859.58125 2254.804688 861.846875 2253.320313 864.815625 L 2253.320313 895.479687 C 2253.320313 902.198437 2251.09375 905.948437 2246.5625 905.948437 C 2224.179688 891.729687 2187.578125 867.08125 2143.476563 867.08125 C 2077.695313 867.08125 2053.046875 899.932812 2053.046875 960.479687 L 2053.046875 1085.245313 C 2053.046875 1132.354688 2053.046875 1139.034375 2030.625 1148.8 L 2021.679688 1152.510938 C 2017.1875 1156.260938 2017.929688 1166.729688 2023.164063 1168.95625 C 2057.539063 1169.698438 2086.679688 1176.417188 2103.125 1182.39375 C 2107.617188 1181.651563 2109.84375 1180.167188 2110.585938 1177.198438 C 2109.101563 1164.464063 2108.359375 1148.8 2108.359375 1112.159375 Z M 2108.359375 987.354687 " transform="matrix(0.1,0,0,-0.1,0,200.13)"/>
<path style=" stroke:none;fill-rule:nonzero;fill:rgb(100%,100%,100%);fill-opacity:1;" d="M 244.535156 90.929688 C 244.535156 88.015625 244.535156 87.644531 242.515625 86.296875 L 241.847656 85.851563 C 241.546875 85.550781 241.546875 84.730469 241.921875 84.503906 C 243.636719 83.90625 247.898438 81.964844 249.390625 80.84375 C 249.691406 80.84375 250.066406 80.992188 250.214844 81.363281 C 250.066406 83.085938 250.066406 84.207031 250.066406 84.878906 C 250.066406 85.328125 250.367188 85.699219 250.886719 85.699219 C 254.027344 83.757813 257.539063 81.890625 261.351563 81.890625 C 267.550781 81.890625 270.089844 86.148438 270.089844 91.15625 L 270.089844 104.007813 C 270.089844 109.390625 270.238281 110.136719 272.929688 110.507813 L 274.574219 110.730469 C 275.101563 111.109375 274.949219 112.375 274.425781 112.601563 C 272.183594 112.453125 270.019531 112.375 267.402344 112.375 C 264.710938 112.375 262.46875 112.453125 260.453125 112.601563 C 259.929688 112.375 259.78125 111.109375 260.304688 110.730469 L 261.722656 110.507813 C 264.488281 110.0625 264.5625 109.390625 264.5625 104.007813 L 264.5625 92.875 C 264.5625 88.613281 262.617188 85.476563 257.539063 85.476563 C 254.699219 85.476563 252.230469 86.671875 251.1875 88.089844 C 250.214844 89.363281 250.066406 90.410156 250.066406 92.574219 L 250.066406 104.007813 C 250.066406 109.390625 250.214844 110.0625 252.90625 110.507813 L 254.253906 110.730469 C 254.773438 111.109375 254.625 112.375 254.101563 112.601563 C 252.082031 112.453125 249.917969 112.375 247.300781 112.375 C 244.609375 112.375 242.367188 112.453125 240.277344 112.601563 C 239.753906 112.375 239.605469 111.109375 240.128906 110.730469 L 241.695313 110.507813 C 244.460938 110.136719 244.535156 109.390625 244.535156 104.007813 L 244.535156 90.929688 "/>
<path style="fill:none;stroke-width:2.5;stroke-linecap:butt;stroke-linejoin:miter;stroke:rgb(100%,100%,100%);stroke-opacity:1;stroke-miterlimit:10;" d="M 2445.351563 1092.003125 C 2445.351563 1121.14375 2445.351563 1124.854688 2425.15625 1138.33125 L 2418.476563 1142.784375 C 2415.46875 1145.792188 2415.46875 1153.995313 2419.21875 1156.260938 C 2436.367188 1162.2375 2478.984375 1181.651563 2493.90625 1192.8625 C 2496.914063 1192.8625 2500.664063 1191.378125 2502.148438 1187.667188 C 2500.664063 1170.440625 2500.664063 1159.229688 2500.664063 1152.510938 C 2500.664063 1148.01875 2503.671875 1144.307813 2508.867188 1144.307813 C 2540.273438 1163.721875 2575.390625 1182.39375 2613.515625 1182.39375 C 2675.507813 1182.39375 2700.898438 1139.815625 2700.898438 1089.7375 L 2700.898438 961.221875 C 2700.898438 907.39375 2702.382813 899.932812 2729.296875 896.221875 L 2745.742188 893.995312 C 2751.015625 890.20625 2749.492188 877.55 2744.257813 875.284375 C 2721.835938 876.76875 2700.195313 877.55 2674.023438 877.55 C 2647.109375 877.55 2624.6875 876.76875 2604.53125 875.284375 C 2599.296875 877.55 2597.8125 890.20625 2603.046875 893.995312 L 2617.226563 896.221875 C 2644.882813 900.675 2645.625 907.39375 2645.625 961.221875 L 2645.625 1072.55 C 2645.625 1115.167188 2626.171875 1146.534375 2575.390625 1146.534375 C 2546.992188 1146.534375 2522.304688 1134.58125 2511.875 1120.401563 C 2502.148438 1107.667188 2500.664063 1097.198438 2500.664063 1075.557813 L 2500.664063 961.221875 C 2500.664063 907.39375 2502.148438 900.675 2529.0625 896.221875 L 2542.539063 893.995312 C 2547.734375 890.20625 2546.25 877.55 2541.015625 875.284375 C 2520.820313 876.76875 2499.179688 877.55 2473.007813 877.55 C 2446.09375 877.55 2423.671875 876.76875 2402.773438 875.284375 C 2397.539063 877.55 2396.054688 890.20625 2401.289063 893.995312 L 2416.953125 896.221875 C 2444.609375 899.932812 2445.351563 907.39375 2445.351563 961.221875 Z M 2445.351563 1092.003125 " transform="matrix(0.1,0,0,-0.1,0,200.13)"/>
<path style=" stroke:none;fill-rule:nonzero;fill:rgb(100%,100%,100%);fill-opacity:1;" d="M 289.894531 72.757813 C 289.894531 75.371094 288.027344 76.566406 286.007813 76.566406 C 283.691406 76.566406 282.199219 74.925781 282.199219 72.902344 C 282.199219 70.4375 284.066406 68.945313 286.234375 68.945313 C 288.472656 68.945313 289.894531 70.664063 289.894531 72.757813 Z M 283.769531 90.929688 C 283.769531 88.015625 283.769531 87.644531 281.75 86.296875 L 281.078125 85.851563 C 280.777344 85.550781 280.777344 84.730469 281.152344 84.503906 C 282.871094 83.90625 287.128906 81.964844 288.847656 80.84375 C 289.222656 80.84375 289.519531 80.992188 289.59375 81.292969 C 289.445313 83.90625 289.296875 87.492188 289.296875 90.558594 L 289.296875 104.007813 C 289.296875 109.390625 289.445313 110.136719 292.132813 110.507813 L 293.703125 110.730469 C 294.226563 111.109375 294.078125 112.375 293.554688 112.601563 C 291.3125 112.453125 289.144531 112.375 286.53125 112.375 C 283.84375 112.375 281.597656 112.453125 279.507813 112.601563 C 278.984375 112.375 278.835938 111.109375 279.359375 110.730469 L 280.929688 110.507813 C 283.691406 110.136719 283.769531 109.390625 283.769531 104.007813 L 283.769531 90.929688 "/>
<path style="fill:none;stroke-width:2.5;stroke-linecap:butt;stroke-linejoin:miter;stroke:rgb(100%,100%,100%);stroke-opacity:1;stroke-miterlimit:10;" d="M 2898.945313 1273.721875 C 2898.945313 1247.589063 2880.273438 1235.635938 2860.078125 1235.635938 C 2836.914063 1235.635938 2821.992188 1252.042188 2821.992188 1272.276563 C 2821.992188 1296.925 2840.664063 1311.846875 2862.34375 1311.846875 C 2884.726563 1311.846875 2898.945313 1294.659375 2898.945313 1273.721875 Z M 2837.695313 1092.003125 C 2837.695313 1121.14375 2837.695313 1124.854688 2817.5 1138.33125 L 2810.78125 1142.784375 C 2807.773438 1145.792188 2807.773438 1153.995313 2811.523438 1156.260938 C 2828.710938 1162.2375 2871.289063 1181.651563 2888.476563 1192.8625 C 2892.226563 1192.8625 2895.195313 1191.378125 2895.9375 1188.370313 C 2894.453125 1162.2375 2892.96875 1126.378125 2892.96875 1095.714063 L 2892.96875 961.221875 C 2892.96875 907.39375 2894.453125 899.932812 2921.328125 896.221875 L 2937.03125 893.995312 C 2942.265625 890.20625 2940.78125 877.55 2935.546875 875.284375 C 2913.125 876.76875 2891.445313 877.55 2865.3125 877.55 C 2838.4375 877.55 2815.976563 876.76875 2795.078125 875.284375 C 2789.84375 877.55 2788.359375 890.20625 2793.59375 893.995312 L 2809.296875 896.221875 C 2836.914063 899.932812 2837.695313 907.39375 2837.695313 961.221875 Z M 2837.695313 1092.003125 " transform="matrix(0.1,0,0,-0.1,0,200.13)"/>
<path style=" stroke:none;fill-rule:nonzero;fill:rgb(100%,100%,100%);fill-opacity:1;" d="M 308.097656 86.074219 C 306.828125 86.074219 306.753906 86.296875 306.753906 87.867188 L 306.753906 101.839844 C 306.753906 106.175781 307.277344 110.136719 312.210938 110.136719 C 312.953125 110.136719 313.628906 109.984375 314.226563 109.761719 C 314.898438 109.535156 315.867188 108.714844 316.09375 108.714844 C 316.691406 108.714844 316.992188 109.535156 316.839844 109.984375 C 315.496094 111.554688 312.804688 113.421875 308.992188 113.421875 C 302.566406 113.421875 301.222656 109.835938 301.222656 105.351563 L 301.222656 88.242188 C 301.222656 86.226563 301.148438 86.074219 299.65625 86.074219 L 297.5625 86.074219 C 297.113281 85.777344 297.039063 84.953125 297.335938 84.503906 C 299.503906 83.835938 301.371094 82.859375 302.117188 82.1875 C 303.089844 81.292969 304.511719 79.273438 305.257813 77.777344 C 305.632813 77.628906 306.527344 77.628906 306.828125 78.152344 L 306.828125 81.515625 C 306.828125 82.859375 306.902344 82.9375 308.171875 82.9375 L 315.464844 82.9375 C 316.363281 83.605469 316.214844 85.625 315.542969 86.074219 L 308.097656 86.074219 "/>
<path style="fill:none;stroke-width:2.5;stroke-linecap:butt;stroke-linejoin:miter;stroke:rgb(100%,100%,100%);stroke-opacity:1;stroke-miterlimit:10;" d="M 3080.976563 1140.557813 C 3068.28125 1140.557813 3067.539063 1138.33125 3067.539063 1122.628125 L 3067.539063 982.901562 C 3067.539063 939.542187 3072.773438 899.932812 3122.109375 899.932812 C 3129.53125 899.932812 3136.289063 901.45625 3142.265625 903.682812 C 3148.984375 905.948437 3158.671875 914.151562 3160.9375 914.151562 C 3166.914063 914.151562 3169.921875 905.948437 3168.398438 901.45625 C 3154.960938 885.753125 3128.046875 867.08125 3089.921875 867.08125 C 3025.664063 867.08125 3012.226563 902.940625 3012.226563 947.784375 L 3012.226563 1118.878125 C 3012.226563 1139.034375 3011.484375 1140.557813 2996.5625 1140.557813 L 2975.625 1140.557813 C 2971.132813 1143.526563 2970.390625 1151.76875 2973.359375 1156.260938 C 2995.039063 1162.940625 3013.710938 1172.70625 3021.171875 1179.425 C 3030.898438 1188.370313 3045.117188 1208.565625 3052.578125 1223.526563 C 3056.328125 1225.010938 3065.273438 1225.010938 3068.28125 1219.776563 L 3068.28125 1186.14375 C 3068.28125 1172.70625 3069.023438 1171.925 3081.71875 1171.925 L 3154.648438 1171.925 C 3163.632813 1165.245313 3162.148438 1145.05 3155.429688 1140.557813 Z M 3080.976563 1140.557813 " transform="matrix(0.1,0,0,-0.1,0,200.13)"/>
<path style=" stroke:none;fill-rule:nonzero;fill:rgb(100%,100%,100%);fill-opacity:1;" d="M 319.382813 127.769531 C 319.382813 125.753906 320.726563 124.78125 322.367188 124.78125 L 323.789063 124.78125 C 324.984375 124.78125 325.730469 124.261719 326.253906 123.4375 C 328.421875 120.074219 329.917969 116.9375 330.589844 115.144531 C 330.8125 114.542969 331.335938 112.972656 331.335938 111.929688 C 331.335938 110.433594 331.035156 109.535156 330.066406 106.773438 L 324.238281 90.78125 C 322.964844 87.269531 322.445313 85.476563 319.828125 84.953125 L 317.960938 84.578125 C 317.511719 84.207031 317.585938 82.9375 318.183594 82.710938 C 320.574219 82.859375 322.816406 82.9375 325.285156 82.9375 C 327.300781 82.9375 329.394531 82.859375 331.785156 82.710938 C 332.382813 82.9375 332.457031 84.207031 331.933594 84.578125 L 330.066406 84.953125 C 329.019531 85.179688 328.421875 85.398438 328.421875 85.925781 C 328.421875 86.820313 330.140625 91.679688 330.589844 92.949219 L 332.980469 99.820313 C 333.429688 101.019531 334.847656 104.980469 335.148438 105.128906 C 335.371094 104.980469 336.566406 102.664063 337.914063 99.601563 L 340.453125 93.695313 C 342.097656 89.808594 343.070313 87.046875 343.070313 86.226563 C 343.070313 85.699219 342.621094 85.179688 341.277344 84.953125 L 338.960938 84.578125 C 338.4375 84.207031 338.511719 82.9375 339.109375 82.710938 C 341.5 82.859375 343.742188 82.9375 345.683594 82.9375 C 347.554688 82.9375 349.269531 82.859375 351.363281 82.710938 C 351.960938 83.007813 352.039063 84.132813 351.511719 84.578125 L 350.242188 84.804688 C 347.777344 85.25 346.429688 87.421875 343.890625 92.726563 L 339.707031 101.316406 C 337.242188 106.324219 331.113281 119.328125 327.449219 127.472656 C 326.179688 130.3125 324.386719 130.984375 322.667969 130.984375 C 320.503906 130.984375 319.382813 129.640625 319.382813 127.769531 "/>
<path style="fill:none;stroke-width:2.5;stroke-linecap:butt;stroke-linejoin:miter;stroke:rgb(100%,100%,100%);stroke-opacity:1;stroke-miterlimit:10;" d="M 3193.828125 723.604687 C 3193.828125 743.760937 3207.265625 753.4875 3223.671875 753.4875 L 3237.890625 753.4875 C 3249.84375 753.4875 3257.304688 758.682812 3262.539063 766.925 C 3284.21875 800.557812 3299.179688 831.925 3305.898438 849.854687 C 3308.125 855.870312 3313.359375 871.573437 3313.359375 882.003125 C 3313.359375 896.964062 3310.351563 905.948437 3300.664063 933.565625 L 3242.382813 1093.4875 C 3229.648438 1128.604688 3224.453125 1146.534375 3198.28125 1151.76875 L 3179.609375 1155.51875 C 3175.117188 1159.229688 3175.859375 1171.925 3181.835938 1174.190625 C 3205.742188 1172.70625 3228.164063 1171.925 3252.851563 1171.925 C 3273.007813 1171.925 3293.945313 1172.70625 3317.851563 1174.190625 C 3323.828125 1171.925 3324.570313 1159.229688 3319.335938 1155.51875 L 3300.664063 1151.76875 C 3290.195313 1149.503125 3284.21875 1147.315625 3284.21875 1142.042188 C 3284.21875 1133.096875 3301.40625 1084.503125 3305.898438 1071.807813 L 3329.804688 1003.096875 C 3334.296875 991.104687 3348.476563 951.495312 3351.484375 950.010937 C 3353.710938 951.495312 3365.664063 974.659375 3379.140625 1005.284375 L 3404.53125 1064.346875 C 3420.976563 1103.214063 3430.703125 1130.83125 3430.703125 1139.034375 C 3430.703125 1144.307813 3426.210938 1149.503125 3412.773438 1151.76875 L 3389.609375 1155.51875 C 3384.375 1159.229688 3385.117188 1171.925 3391.09375 1174.190625 C 3415 1172.70625 3437.421875 1171.925 3456.835938 1171.925 C 3475.546875 1171.925 3492.695313 1172.70625 3513.632813 1174.190625 C 3519.609375 1171.221875 3520.390625 1159.971875 3515.117188 1155.51875 L 3502.421875 1153.253125 C 3477.773438 1148.8 3464.296875 1127.08125 3438.90625 1074.034375 L 3397.070313 988.135937 C 3372.421875 938.057812 3311.132813 808.01875 3274.492188 726.573437 C 3261.796875 698.175 3243.867188 691.45625 3226.679688 691.45625 C 3205.039063 691.45625 3193.828125 704.89375 3193.828125 723.604687 Z M 3193.828125 723.604687 " transform="matrix(0.1,0,0,-0.1,0,200.13)"/>
<path style=" stroke:none;fill-rule:nonzero;fill:rgb(100%,100%,100%);fill-opacity:1;" d="M 186.160156 129.511719 C 192.144531 124.835938 199.765625 122.542969 208.292969 122.542969 C 212.71875 122.542969 218.949219 123.441406 222.804688 124.511719 C 223.785156 124.753906 224.359375 124.917969 225.097656 124.835938 C 225.179688 126.722656 225.589844 131.886719 226.242188 136.890625 C 225.835938 137.460938 224.605469 137.542969 224.03125 137.050781 C 222.804688 131.476563 219.113281 125.082031 207.226563 125.082031 C 194.683594 125.082031 184.027344 133.03125 184.027344 150.003906 C 184.027344 167.21875 194.929688 176.726563 208.375 176.726563 C 218.949219 176.726563 223.621094 169.839844 225.507813 165 C 226.078125 164.59375 227.308594 164.757813 227.636719 165.332031 C 227.0625 169.59375 224.933594 175.003906 223.703125 176.558594 C 222.71875 176.726563 221.734375 177.054688 220.835938 177.378906 C 219.03125 178.035156 213.128906 179.265625 207.882813 179.265625 C 200.503906 179.265625 193.457031 177.789063 187.472656 173.773438 C 180.914063 169.265625 175.832031 161.804688 175.832031 151.234375 C 175.832031 142.132813 179.929688 134.347656 186.160156 129.511719 "/>
<path style="fill:none;stroke-width:5;stroke-linecap:butt;stroke-linejoin:miter;stroke:rgb(100%,100%,100%);stroke-opacity:1;stroke-miterlimit:10;" d="M 1861.601563 706.182812 C 1921.445313 752.940625 1997.65625 775.870312 2082.929688 775.870312 C 2127.1875 775.870312 2189.492188 766.885937 2228.046875 756.182812 C 2237.851563 753.760937 2243.59375 752.120312 2250.976563 752.940625 C 2251.796875 734.073437 2255.898438 682.432812 2262.421875 632.39375 C 2258.359375 626.690625 2246.054688 625.870312 2240.3125 630.792187 C 2228.046875 686.534375 2191.132813 750.479687 2072.265625 750.479687 C 1946.835938 750.479687 1840.273438 670.9875 1840.273438 501.260937 C 1840.273438 329.1125 1949.296875 234.034375 2083.75 234.034375 C 2189.492188 234.034375 2236.210938 302.901562 2255.078125 351.3 C 2260.78125 355.3625 2273.085938 353.721875 2276.367188 347.979687 C 2270.625 305.3625 2249.335938 251.260937 2237.03125 235.714062 C 2227.1875 234.034375 2217.34375 230.753125 2208.359375 227.510937 C 2190.3125 220.948437 2131.289063 208.64375 2078.828125 208.64375 C 2005.039063 208.64375 1934.570313 223.409375 1874.726563 263.565625 C 1809.140625 308.64375 1758.320313 383.253125 1758.320313 488.95625 C 1758.320313 579.971875 1799.296875 657.823437 1861.601563 706.182812 Z M 1861.601563 706.182812 " transform="matrix(0.1,0,0,-0.1,0,200.13)"/>
<path style=" stroke:none;fill-rule:nonzero;fill:rgb(100%,100%,100%);fill-opacity:1;" d="M 248.621094 146.96875 C 243.214844 146.96875 239.195313 152.132813 239.195313 161.148438 C 239.195313 168.609375 242.558594 176.644531 249.769531 176.644531 C 256.984375 176.644531 259.195313 169.101563 259.195313 162.789063 C 259.195313 155.820313 256.410156 146.96875 248.621094 146.96875 Z M 266.246094 161.476563 C 266.246094 171.726563 259.195313 179.101563 248.949219 179.101563 C 239.523438 179.101563 232.148438 172.460938 232.148438 162.21875 C 232.148438 151.886719 239.933594 144.511719 249.605469 144.511719 C 258.785156 144.511719 266.246094 151.394531 266.246094 161.476563 "/>
<path style="fill:none;stroke-width:2.5;stroke-linecap:butt;stroke-linejoin:miter;stroke:rgb(100%,100%,100%);stroke-opacity:1;stroke-miterlimit:10;" d="M 2486.210938 531.6125 C 2432.148438 531.6125 2391.953125 479.971875 2391.953125 389.815625 C 2391.953125 315.20625 2425.585938 234.854687 2497.695313 234.854687 C 2569.84375 234.854687 2591.953125 310.284375 2591.953125 373.409375 C 2591.953125 443.096875 2564.101563 531.6125 2486.210938 531.6125 Z M 2662.460938 386.534375 C 2662.460938 284.034375 2591.953125 210.284375 2489.492188 210.284375 C 2395.234375 210.284375 2321.484375 276.690625 2321.484375 379.1125 C 2321.484375 482.432812 2399.335938 556.182812 2496.054688 556.182812 C 2587.851563 556.182812 2662.460938 487.354687 2662.460938 386.534375 Z M 2662.460938 386.534375 " transform="matrix(0.1,0,0,-0.1,0,200.13)"/>
<path style=" stroke:none;fill-rule:nonzero;fill:rgb(100%,100%,100%);fill-opacity:1;" d="M 282.390625 168.773438 C 282.390625 174.675781 282.558594 175.496094 285.507813 175.90625 L 287.476563 176.148438 C 288.050781 176.558594 287.886719 177.953125 287.3125 178.203125 C 284.609375 178.035156 282.226563 177.953125 279.359375 177.953125 C 276.410156 177.953125 273.949219 178.035156 271.492188 178.203125 C 270.917969 177.953125 270.753906 176.558594 271.328125 176.148438 L 273.214844 175.90625 C 276.246094 175.496094 276.328125 174.675781 276.328125 168.773438 L 276.328125 131.722656 C 276.328125 126.886719 276.246094 126.394531 273.785156 124.917969 L 272.96875 124.425781 C 272.554688 124.183594 272.554688 123.035156 272.96875 122.785156 C 275.015625 122.132813 278.871094 120.902344 281.820313 119.34375 C 282.148438 119.34375 282.476563 119.507813 282.640625 119.835938 C 282.558594 122.296875 282.390625 126.394531 282.390625 130 L 282.390625 168.773438 "/>
<path style="fill:none;stroke-width:2.5;stroke-linecap:butt;stroke-linejoin:miter;stroke:rgb(100%,100%,100%);stroke-opacity:1;stroke-miterlimit:10;" d="M 2823.90625 313.565625 C 2823.90625 254.542187 2825.585938 246.339062 2855.078125 242.2375 L 2874.765625 239.815625 C 2880.507813 235.714062 2878.867188 221.76875 2873.125 219.26875 C 2846.09375 220.948437 2822.265625 221.76875 2793.59375 221.76875 C 2764.101563 221.76875 2739.492188 220.948437 2714.921875 219.26875 C 2709.179688 221.76875 2707.539063 235.714062 2713.28125 239.815625 L 2732.148438 242.2375 C 2762.460938 246.339062 2763.28125 254.542187 2763.28125 313.565625 L 2763.28125 684.073437 C 2763.28125 732.432812 2762.460938 737.354687 2737.851563 752.120312 L 2729.6875 757.042187 C 2725.546875 759.464062 2725.546875 770.948437 2729.6875 773.448437 C 2750.15625 779.971875 2788.710938 792.276562 2818.203125 807.8625 C 2821.484375 807.8625 2824.765625 806.221875 2826.40625 802.940625 C 2825.585938 778.33125 2823.90625 737.354687 2823.90625 701.3 Z M 2823.90625 313.565625 " transform="matrix(0.1,0,0,-0.1,0,200.13)"/>
<path style=" stroke:none;fill-rule:nonzero;fill:rgb(100%,100%,100%);fill-opacity:1;" d="M 301.640625 168.773438 C 301.640625 174.675781 301.804688 175.496094 304.757813 175.90625 L 306.722656 176.148438 C 307.296875 176.558594 307.132813 177.953125 306.558594 178.203125 C 303.855469 178.035156 301.476563 177.953125 298.609375 177.953125 C 295.65625 177.953125 293.199219 178.035156 290.738281 178.203125 C 290.164063 177.953125 290 176.558594 290.574219 176.148438 L 292.460938 175.90625 C 295.496094 175.496094 295.574219 174.675781 295.574219 168.773438 L 295.574219 131.722656 C 295.574219 126.886719 295.496094 126.394531 293.035156 124.917969 L 292.210938 124.425781 C 291.804688 124.183594 291.804688 123.035156 292.210938 122.785156 C 294.265625 122.132813 298.113281 120.902344 301.066406 119.34375 C 301.394531 119.34375 301.722656 119.507813 301.886719 119.835938 C 301.804688 122.296875 301.640625 126.394531 301.640625 130 L 301.640625 168.773438 "/>
<path style="fill:none;stroke-width:2.5;stroke-linecap:butt;stroke-linejoin:miter;stroke:rgb(100%,100%,100%);stroke-opacity:1;stroke-miterlimit:10;" d="M 3016.40625 313.565625 C 3016.40625 254.542187 3018.046875 246.339062 3047.578125 242.2375 L 3067.226563 239.815625 C 3072.96875 235.714062 3071.328125 221.76875 3065.585938 219.26875 C 3038.554688 220.948437 3014.765625 221.76875 2986.09375 221.76875 C 2956.5625 221.76875 2931.992188 220.948437 2907.382813 219.26875 C 2901.640625 221.76875 2900 235.714062 2905.742188 239.815625 L 2924.609375 242.2375 C 2954.960938 246.339062 2955.742188 254.542187 2955.742188 313.565625 L 2955.742188 684.073437 C 2955.742188 732.432812 2954.960938 737.354687 2930.351563 752.120312 L 2922.109375 757.042187 C 2918.046875 759.464062 2918.046875 770.948437 2922.109375 773.448437 C 2942.65625 779.971875 2981.132813 792.276562 3010.664063 807.8625 C 3013.945313 807.8625 3017.226563 806.221875 3018.867188 802.940625 C 3018.046875 778.33125 3016.40625 737.354687 3016.40625 701.3 Z M 3016.40625 313.565625 " transform="matrix(0.1,0,0,-0.1,0,200.13)"/>
<path style=" stroke:none;fill-rule:nonzero;fill:rgb(100%,100%,100%);fill-opacity:1;" d="M 324.347656 154.511719 C 330.410156 154.511719 332.214844 154.183594 332.871094 153.691406 C 333.117188 153.527344 333.363281 153.199219 333.363281 152.132813 C 333.363281 149.839844 331.804688 146.96875 327.050781 146.96875 C 322.214844 146.96875 318.035156 151.394531 317.949219 154.101563 C 317.949219 154.265625 317.949219 154.511719 318.523438 154.511719 Z M 319.265625 156.972656 C 317.132813 156.972656 317.050781 157.132813 317.050781 159.183594 C 317.050781 167.460938 321.886719 174.511719 330.65625 174.511719 C 333.363281 174.511719 335.65625 173.691406 338.199219 170.496094 C 339.019531 170.246094 339.59375 170.738281 339.675781 171.476563 C 336.96875 177.054688 331.066406 179.101563 326.804688 179.101563 C 321.476563 179.101563 317.296875 176.808594 314.917969 173.691406 C 312.460938 170.496094 311.476563 166.640625 311.476563 163.035156 C 311.476563 152.953125 318.113281 144.511719 327.953125 144.511719 C 335 144.511719 339.59375 149.347656 339.59375 154.265625 C 339.59375 155.414063 339.429688 156.066406 339.265625 156.394531 C 339.019531 156.890625 337.871094 156.972656 334.429688 156.972656 L 319.265625 156.972656 "/>
<path style="fill:none;stroke-width:2.5;stroke-linecap:butt;stroke-linejoin:miter;stroke:rgb(100%,100%,100%);stroke-opacity:1;stroke-miterlimit:10;" d="M 3243.476563 456.182812 C 3304.101563 456.182812 3322.148438 459.464062 3328.710938 464.385937 C 3331.171875 466.026562 3333.632813 469.307812 3333.632813 479.971875 C 3333.632813 502.901562 3318.046875 531.6125 3270.507813 531.6125 C 3222.148438 531.6125 3180.351563 487.354687 3179.492188 460.284375 C 3179.492188 458.64375 3179.492188 456.182812 3185.234375 456.182812 Z M 3192.65625 431.573437 C 3171.328125 431.573437 3170.507813 429.971875 3170.507813 409.464062 C 3170.507813 326.690625 3218.867188 256.182812 3306.5625 256.182812 C 3333.632813 256.182812 3356.5625 264.385937 3381.992188 296.339062 C 3390.195313 298.839062 3395.9375 293.917187 3396.757813 286.534375 C 3369.6875 230.753125 3310.664063 210.284375 3268.046875 210.284375 C 3214.765625 210.284375 3172.96875 233.214062 3149.179688 264.385937 C 3124.609375 296.339062 3114.765625 334.89375 3114.765625 370.948437 C 3114.765625 471.76875 3181.132813 556.182812 3279.53125 556.182812 C 3350 556.182812 3395.9375 507.823437 3395.9375 458.64375 C 3395.9375 447.159375 3394.296875 440.635937 3392.65625 437.354687 C 3390.195313 432.39375 3378.710938 431.573437 3344.296875 431.573437 Z M 3192.65625 431.573437 " transform="matrix(0.1,0,0,-0.1,0,200.13)"/>
<g clip-path="url(#clip2)" clip-rule="nonzero">
<path style=" stroke:none;fill-rule:nonzero;fill:rgb(100%,100%,100%);fill-opacity:1;" d="M 365.574219 157.132813 C 365.574219 151.558594 363.28125 146.886719 358.28125 146.886719 C 354.347656 146.886719 351.394531 150.492188 351.394531 156.066406 C 351.394531 161.886719 354.921875 165.660156 358.855469 165.660156 C 363.28125 165.660156 365.574219 162.132813 365.574219 157.132813 Z M 360.496094 180.578125 C 357.871094 180.578125 354.59375 180.742188 353.445313 181.480469 C 351.476563 182.707031 349.511719 185.25 349.511719 188.363281 C 349.511719 192.789063 353.035156 196.480469 360.496094 196.480469 C 367.792969 196.480469 372.625 192.382813 372.625 187.710938 C 372.625 182.707031 369.183594 180.578125 363.28125 180.578125 Z M 377.625 147.460938 C 378.527344 147.871094 378.363281 150.65625 377.136719 150.820313 L 371.234375 150.820313 C 371.398438 152.214844 371.398438 153.609375 371.398438 155.003906 C 371.398438 160.65625 368.035156 168.035156 357.628906 168.035156 C 356.148438 168.035156 355 167.871094 354.019531 167.789063 C 353.035156 168.363281 350.414063 169.921875 350.414063 172.296875 C 350.414063 174.183594 352.296875 175.742188 356.148438 175.742188 C 358.9375 175.742188 362.300781 175.496094 365.90625 175.496094 C 370.496094 175.496094 377.382813 176.3125 377.382813 184.511719 C 377.382813 193.445313 367.628906 200.003906 356.96875 200.003906 C 346.886719 200.003906 343.363281 194.59375 343.363281 190.496094 C 343.363281 189.183594 343.6875 188.117188 344.265625 187.460938 C 345.65625 185.988281 347.953125 183.855469 349.839844 181.972656 C 350.578125 181.230469 351.230469 180.492188 350.492188 180.003906 C 347.300781 179.183594 344.511719 176.398438 344.511719 173.527344 C 344.511719 173.117188 344.839844 172.789063 345.738281 172.132813 C 347.132813 171.234375 348.691406 169.839844 350.085938 168.363281 C 350.492188 167.871094 350.90625 167.21875 350.90625 166.804688 C 348.117188 165.332031 344.753906 162.132813 344.753906 156.890625 C 344.753906 149.839844 350.820313 144.511719 358.117188 144.511719 C 361.234375 144.511719 364.101563 145.332031 365.988281 146.148438 C 368.609375 147.296875 369.183594 147.460938 370.988281 147.460938 L 377.625 147.460938 "/>
</g>
<g clip-path="url(#clip3)" clip-rule="nonzero">
<path style="fill:none;stroke-width:2.5;stroke-linecap:butt;stroke-linejoin:miter;stroke:rgb(100%,100%,100%);stroke-opacity:1;stroke-miterlimit:10;" d="M 3655.742188 429.971875 C 3655.742188 485.714062 3632.8125 532.432812 3582.8125 532.432812 C 3543.476563 532.432812 3513.945313 496.378125 3513.945313 440.635937 C 3513.945313 382.432812 3549.21875 344.698437 3588.554688 344.698437 C 3632.8125 344.698437 3655.742188 379.971875 3655.742188 429.971875 Z M 3604.960938 195.51875 C 3578.710938 195.51875 3545.9375 193.878125 3534.453125 186.495312 C 3514.765625 174.229687 3495.117188 148.8 3495.117188 117.667187 C 3495.117188 73.409375 3530.351563 36.495312 3604.960938 36.495312 C 3677.929688 36.495312 3726.25 77.471875 3726.25 124.190625 C 3726.25 174.229687 3691.835938 195.51875 3632.8125 195.51875 Z M 3776.25 526.690625 C 3785.273438 522.589062 3783.632813 494.7375 3771.367188 493.096875 L 3712.34375 493.096875 C 3713.984375 479.151562 3713.984375 465.20625 3713.984375 451.260937 C 3713.984375 394.7375 3680.351563 320.948437 3576.289063 320.948437 C 3561.484375 320.948437 3550 322.589062 3540.195313 323.409375 C 3530.351563 317.667187 3504.140625 302.08125 3504.140625 278.33125 C 3504.140625 259.464062 3522.96875 243.878125 3561.484375 243.878125 C 3589.375 243.878125 3623.007813 246.339062 3659.0625 246.339062 C 3704.960938 246.339062 3773.828125 238.175 3773.828125 156.182812 C 3773.828125 66.846875 3676.289063 1.260937 3569.6875 1.260937 C 3468.867188 1.260937 3433.632813 55.3625 3433.632813 96.339062 C 3433.632813 109.464062 3436.875 120.128125 3442.65625 126.690625 C 3456.5625 141.417187 3479.53125 162.745312 3498.398438 181.573437 C 3505.78125 188.995312 3512.304688 196.378125 3504.921875 201.260937 C 3473.007813 209.464062 3445.117188 237.315625 3445.117188 266.026562 C 3445.117188 270.128125 3448.398438 273.409375 3457.382813 279.971875 C 3471.328125 288.95625 3486.914063 302.901562 3500.859375 317.667187 C 3504.921875 322.589062 3509.0625 329.1125 3509.0625 333.253125 C 3481.171875 347.979687 3447.539063 379.971875 3447.539063 432.39375 C 3447.539063 502.901562 3508.203125 556.182812 3581.171875 556.182812 C 3612.34375 556.182812 3641.015625 547.979687 3659.882813 539.815625 C 3686.09375 528.33125 3691.835938 526.690625 3709.882813 526.690625 Z M 3776.25 526.690625 " transform="matrix(0.1,0,0,-0.1,0,200.13)"/>
</g>
<path style=" stroke:none;fill-rule:nonzero;fill:rgb(100%,100%,100%);fill-opacity:1;" d="M 393.363281 154.511719 C 399.429688 154.511719 401.234375 154.183594 401.890625 153.691406 C 402.136719 153.527344 402.382813 153.199219 402.382813 152.132813 C 402.382813 149.839844 400.824219 146.96875 396.070313 146.96875 C 391.234375 146.96875 387.054688 151.394531 386.96875 154.101563 C 386.96875 154.265625 386.96875 154.511719 387.542969 154.511719 Z M 388.285156 156.972656 C 386.152344 156.972656 386.070313 157.132813 386.070313 159.183594 C 386.070313 167.460938 390.90625 174.511719 399.675781 174.511719 C 402.382813 174.511719 404.675781 173.691406 407.21875 170.496094 C 408.035156 170.246094 408.613281 170.738281 408.691406 171.476563 C 405.988281 177.054688 400.085938 179.101563 395.824219 179.101563 C 390.496094 179.101563 386.316406 176.808594 383.9375 173.691406 C 381.480469 170.496094 380.496094 166.640625 380.496094 163.035156 C 380.496094 152.953125 387.132813 144.511719 396.972656 144.511719 C 404.019531 144.511719 408.613281 149.347656 408.613281 154.265625 C 408.613281 155.414063 408.445313 156.066406 408.285156 156.394531 C 408.035156 156.890625 406.890625 156.972656 403.449219 156.972656 L 388.285156 156.972656 "/>
<path style="fill:none;stroke-width:2.5;stroke-linecap:butt;stroke-linejoin:miter;stroke:rgb(100%,100%,100%);stroke-opacity:1;stroke-miterlimit:10;" d="M 3933.632813 456.182812 C 3994.296875 456.182812 4012.34375 459.464062 4018.90625 464.385937 C 4021.367188 466.026562 4023.828125 469.307812 4023.828125 479.971875 C 4023.828125 502.901562 4008.242188 531.6125 3960.703125 531.6125 C 3912.34375 531.6125 3870.546875 487.354687 3869.6875 460.284375 C 3869.6875 458.64375 3869.6875 456.182812 3875.429688 456.182812 Z M 3882.851563 431.573437 C 3861.523438 431.573437 3860.703125 429.971875 3860.703125 409.464062 C 3860.703125 326.690625 3909.0625 256.182812 3996.757813 256.182812 C 4023.828125 256.182812 4046.757813 264.385937 4072.1875 296.339062 C 4080.351563 298.839062 4086.132813 293.917187 4086.914063 286.534375 C 4059.882813 230.753125 4000.859375 210.284375 3958.242188 210.284375 C 3904.960938 210.284375 3863.164063 233.214062 3839.375 264.385937 C 3814.804688 296.339062 3804.960938 334.89375 3804.960938 370.948437 C 3804.960938 471.76875 3871.328125 556.182812 3969.726563 556.182812 C 4040.195313 556.182812 4086.132813 507.823437 4086.132813 458.64375 C 4086.132813 447.159375 4084.453125 440.635937 4082.851563 437.354687 C 4080.351563 432.39375 4068.90625 431.573437 4034.492188 431.573437 Z M 3882.851563 431.573437 " transform="matrix(0.1,0,0,-0.1,0,200.13)"/>
</g>
</svg>
