<?xml version="1.0" encoding="UTF-8"?>
<svg xmlns="http://www.w3.org/2000/svg" xmlns:xlink="http://www.w3.org/1999/xlink" width="400px" height="275px" viewBox="0 0 400 275" version="1.1">
<g id="surface1">
<path style=" stroke:none;fill-rule:evenodd;fill:rgb(51.764709%,20.392157%,10.980392%);fill-opacity:1;" d="M 254.914062 49.238281 C 239.570312 51 233.613281 58.164062 237.398438 70.296875 C 239.238281 76.203125 241.574219 77.058594 248.773438 74.464844 C 261.199219 69.984375 269.234375 68.613281 270.390625 70.777344 C 270.765625 71.476562 270.691406 75.570312 270.265625 77.59375 C 267.816406 89.234375 254.367188 107.746094 239.117188 120.480469 C 235.453125 123.539062 235.867188 125.585938 241.171875 130.667969 C 248.039062 137.257812 256.710938 140.878906 260.140625 138.59375 C 264.910156 135.417969 274.820312 122.710938 281.648438 111.019531 C 291.828125 93.585938 296.773438 77.476562 294.84375 68.03125 C 292.425781 56.175781 273.214844 47.136719 254.914062 49.238281 M 196.664062 63.898438 C 189.265625 65.902344 169.152344 76.71875 167.035156 79.832031 C 162.890625 85.929688 177.679688 94.089844 187.191406 90.957031 C 192.546875 89.195312 203.898438 84.046875 205.609375 82.605469 C 208.847656 79.878906 208.238281 70.597656 204.519531 66.011719 C 202.609375 63.65625 200.082031 62.976562 196.664062 63.898438 "/>
<path style=" stroke:none;fill-rule:evenodd;fill:rgb(10.980392%,61.176473%,83.137256%);fill-opacity:1;" d="M 77.109375 8.109375 C 62.984375 9.910156 65.214844 27.660156 82.191406 48.574219 C 100.851562 71.554688 152.140625 113.113281 192.585938 138.019531 L 195.824219 140.015625 L 217.824219 139.949219 L 239.820312 139.886719 L 237.921875 138.980469 C 210.089844 125.734375 176.992188 104.84375 151.425781 84.378906 C 114.714844 54.992188 97.167969 36.238281 101.535156 31.050781 C 103.945312 28.1875 106.945312 27.835938 126.1875 28.167969 C 134.492188 28.3125 136.460938 27.714844 136.460938 25.0625 C 136.460938 19.351562 90.933594 6.34375 77.109375 8.109375 "/>
<path style=" stroke:none;fill-rule:evenodd;fill:rgb(7.843138%,20.392157%,36.078432%);fill-opacity:1;" d="M 218.265625 0.28125 C 205.832031 1.074219 191.613281 3.9375 180.472656 7.894531 C 159.238281 15.433594 123.238281 45.660156 128.832031 51.257812 C 130.832031 53.253906 132.636719 52.402344 143.054688 44.554688 C 173.945312 21.296875 203.164062 12.988281 234.113281 18.667969 C 260.046875 23.429688 287.128906 39.871094 299.425781 58.324219 C 312.636719 78.148438 317.914062 111.882812 312.09375 139.316406 L 311.945312 140.011719 L 340.882812 140.011719 L 341.144531 139.039062 C 343.839844 129.023438 345.046875 112.035156 343.847656 100.949219 C 337.214844 39.511719 283.125 -3.84375 218.265625 0.28125 M 16.023438 158.621094 C 15.074219 159.148438 0.746094 172.792969 0.355469 173.546875 C -0.105469 174.433594 -0.179688 210.105469 0.277344 211.113281 C 0.617188 211.855469 16.976562 227.410156 17.953125 227.917969 C 18.53125 228.21875 21.679688 228.28125 37.160156 228.285156 C 58.589844 228.292969 56.511719 228.027344 59.605469 231.175781 L 61.507812 233.113281 L 61.589844 240.527344 C 61.6875 249.613281 61.8125 249.109375 58.734375 251.953125 C 55.21875 255.195312 56.730469 254.910156 43.046875 254.914062 C 29.230469 254.914062 30.535156 255.160156 27.085938 251.890625 C 24.1875 249.140625 24.101562 248.9375 24.097656 244.738281 C 24.09375 239.578125 24.371094 239.695312 12.027344 239.695312 C -1.109375 239.695312 0 238.683594 0 250.691406 C 0 256.078125 0.09375 259.15625 0.273438 259.550781 C 0.613281 260.300781 14.972656 273.898438 16.066406 274.507812 C 16.808594 274.921875 18.574219 274.953125 42.992188 274.953125 C 67.410156 274.953125 69.179688 274.921875 69.921875 274.507812 C 71.046875 273.878906 85.851562 259.847656 86.203125 259.078125 C 86.613281 258.175781 86.617188 224.007812 86.203125 223.105469 C 85.859375 222.351562 69.03125 206.335938 68.035156 205.816406 C 67.453125 205.515625 64.296875 205.457031 48.574219 205.453125 L 29.804688 205.449219 L 28.867188 204.882812 C 27.226562 203.886719 24.636719 201.179688 24.355469 200.164062 C 24.023438 198.964844 24.015625 185.816406 24.347656 184.660156 C 24.613281 183.742188 27.453125 180.644531 29.269531 179.300781 L 30.261719 178.566406 L 42.792969 178.566406 C 51.851562 178.566406 55.480469 178.648438 55.882812 178.863281 C 56.984375 179.449219 61.113281 183.484375 61.371094 184.226562 C 61.515625 184.644531 61.636719 186.457031 61.636719 188.257812 C 61.636719 194.257812 61.160156 194.035156 74.015625 194.039062 C 85.019531 194.039062 85.023438 194.039062 85.996094 192.441406 C 86.648438 191.371094 86.769531 175.265625 86.132812 174.050781 C 85.738281 173.300781 70.898438 159.140625 69.957031 158.617188 C 69.09375 158.140625 16.886719 158.140625 16.023438 158.621094 M 105.871094 159.136719 L 105.011719 160 L 105.011719 168.234375 C 105.011719 178.25 105.136719 178.566406 109.199219 178.566406 C 110.882812 178.566406 111.960938 179.0625 112.488281 180.078125 C 113.011719 181.09375 113.070312 252.097656 112.546875 253.132812 C 111.960938 254.296875 110.691406 254.914062 108.890625 254.914062 C 105.078125 254.914062 105.011719 255.097656 105.011719 264.933594 C 105.011719 273.828125 105.023438 273.90625 106.703125 274.605469 C 108.078125 275.179688 190.703125 275.113281 191.921875 274.539062 C 193.550781 273.761719 193.53125 273.933594 193.53125 261.050781 C 193.53125 245.882812 194.582031 247.304688 183.386719 247.304688 C 173.9375 247.304688 173.242188 247.554688 173.238281 250.953125 C 173.238281 255 173.601562 254.914062 156.421875 254.914062 L 142.117188 254.914062 L 141.257812 254.335938 C 139.671875 253.265625 139.765625 255.691406 139.765625 216.613281 C 139.761719 181.558594 139.773438 180.707031 140.253906 179.980469 C 140.949219 178.925781 141.703125 178.585938 143.382812 178.574219 C 147.507812 178.550781 147.621094 178.269531 147.621094 168.234375 L 147.621094 160 L 146.761719 159.136719 L 145.898438 158.273438 L 106.734375 158.273438 L 105.871094 159.136719 M 226.378906 158.515625 C 225.714844 158.785156 212.09375 171.691406 211.351562 172.753906 L 210.78125 173.570312 L 210.78125 216.359375 C 210.78125 244.894531 210.867188 259.398438 211.039062 259.894531 C 211.328125 260.722656 224.96875 273.761719 226.324219 274.507812 C 227.453125 275.128906 278.429688 275.203125 279.90625 274.585938 C 281.5 273.917969 295.941406 259.898438 296.261719 258.703125 C 296.441406 258.042969 296.511719 254.496094 296.460938 248.503906 C 296.355469 235.550781 297.5 236.652344 284.136719 236.652344 C 271.394531 236.652344 271.910156 236.363281 271.910156 243.527344 C 271.910156 249.066406 271.902344 249.089844 269.007812 251.894531 C 265.671875 255.128906 266.882812 254.898438 253.195312 254.90625 C 239.601562 254.914062 240.785156 255.125 237.53125 252.132812 C 234.011719 248.890625 234.382812 253.089844 234.375 216.667969 C 234.367188 180.511719 234.0625 184.355469 237.1875 181.40625 C 240.53125 178.253906 238.765625 178.570312 253.015625 178.570312 C 267.382812 178.566406 265.890625 178.296875 269.125 181.46875 C 271.921875 184.207031 271.761719 183.71875 271.910156 190.027344 L 272.035156 195.527344 L 272.785156 196.3125 C 273.992188 197.570312 274.546875 197.628906 284.636719 197.542969 C 297.558594 197.433594 296.386719 198.703125 296.386719 184.824219 C 296.386719 179.222656 296.300781 174.332031 296.195312 173.964844 C 296.011719 173.308594 281.394531 159.273438 280.195312 158.601562 C 279.554688 158.242188 227.257812 158.15625 226.378906 158.515625 M 329.824219 158.601562 C 328.589844 159.296875 314.792969 172.570312 314.535156 173.3125 C 314.070312 174.640625 314.171875 259.0625 314.636719 259.964844 C 315.179688 261.015625 329.105469 274.164062 330.125 274.589844 C 331.589844 275.203125 382.578125 275.125 383.6875 274.507812 C 385.023438 273.769531 399.15625 260.296875 399.53125 259.402344 C 399.796875 258.769531 399.871094 256.460938 399.871094 248.953125 C 399.871094 235.515625 401 236.652344 387.664062 236.652344 C 374.925781 236.652344 375.597656 236.253906 375.390625 243.960938 C 375.230469 249.886719 375.511719 249.175781 372.097656 252.359375 C 368.253906 255.9375 369.46875 255.675781 356.699219 255.671875 C 343.867188 255.664062 345.121094 255.949219 341.027344 252.0625 L 338.238281 249.40625 L 338.238281 183.855469 L 340.695312 181.464844 C 343.917969 178.328125 342.59375 178.566406 356.785156 178.566406 C 370.757812 178.566406 369.285156 178.320312 372.429688 181.183594 C 375.496094 183.972656 375.394531 183.683594 375.394531 189.65625 C 375.394531 197.945312 374.898438 197.632812 387.996094 197.535156 C 401.085938 197.4375 399.871094 198.761719 399.871094 184.5625 C 399.871094 175.074219 399.832031 174.042969 399.433594 173.4375 C 398.859375 172.554688 384.894531 159.351562 383.902344 158.746094 C 382.933594 158.15625 330.867188 158.015625 329.824219 158.601562 "/>
<path style=" stroke:none;fill-rule:evenodd;fill:rgb(98.823529%,73.725492%,7.843138%);fill-opacity:1;" d="M 213.191406 27.039062 C 201.832031 29.066406 197.886719 34.859375 200.636719 45.464844 C 204.511719 60.433594 224.742188 88.167969 238.441406 97.296875 C 245.40625 101.933594 252.378906 102.710938 252.378906 98.851562 C 252.378906 97.65625 251.542969 96.65625 246.507812 91.820312 C 239.382812 84.976562 237.265625 82.472656 231.964844 74.613281 C 223.035156 61.386719 220.960938 54.277344 223.597656 45.929688 C 225.300781 40.535156 230.851562 38.558594 242.214844 39.292969 C 249.230469 39.746094 250.757812 39.6875 251.503906 38.945312 C 253.074219 37.371094 251.820312 35.984375 246.355469 33.253906 C 235.9375 28.050781 222.078125 25.453125 213.191406 27.039062 M 72.375 73.660156 C 61.070312 75.824219 56.570312 84.609375 61.148438 95.597656 C 66.390625 108.183594 79.960938 123.070312 99.859375 138.0625 L 102.449219 140.011719 L 120.53125 140.003906 L 138.617188 139.992188 L 137.222656 139.222656 C 136.453125 138.800781 134.230469 137.59375 132.277344 136.542969 C 108.0625 123.511719 87.460938 106.160156 83.441406 95.414062 C 81.363281 89.863281 82.222656 88.589844 89.957031 85.710938 C 97.488281 82.90625 99.695312 80.929688 97.683594 78.789062 C 94.4375 75.332031 79.476562 72.304688 72.375 73.660156 "/>
</g>
</svg>
